<?xml version="1.0" encoding="UTF-8"?>
<svg version="1.1" xmlns="http://www.w3.org/2000/svg" width="1280" height="783">
<path d="M0 0 C1.75932106 -0.01051392 1.75932106 -0.01051392 3.55418396 -0.02124023 C7.43154569 -0.03884669 11.3081777 -0.02718713 15.18554688 -0.01367188 C17.87927847 -0.01456253 20.57299704 -0.02024162 23.26672363 -0.02526855 C28.91243395 -0.0325403 34.55793479 -0.02296988 40.20361328 -0.00390625 C46.72542436 0.01786186 53.24673522 0.01081014 59.76853418 -0.01121187 C65.37380576 -0.02937956 70.97892699 -0.0319176 76.5842185 -0.0214572 C79.92953682 -0.01522958 83.27443155 -0.01594239 86.61976624 -0.02760315 C90.34972041 -0.037751 94.07871139 -0.02229023 97.80859375 0 C99.46700539 -0.01214539 99.46700539 -0.01214539 101.15892029 -0.02453613 C108.57536708 0.05765642 108.57536708 0.05765642 112.50402832 2.23742676 C116.52989799 7.0681083 116.68793213 11.4986572 116.6171875 17.60058594 C116.61574738 18.41186195 116.61430725 19.22313797 116.61282349 20.05899811 C116.60526675 22.77970387 116.58298725 25.50008231 116.56054688 28.22070312 C116.55162789 30.17335695 116.5434688 32.12601437 116.53601074 34.07867432 C116.51215384 39.4266091 116.47397621 44.7743473 116.43127441 50.12216187 C116.40403978 53.54993688 116.37902586 56.97772224 116.35449219 60.40551758 C116.24019246 76.1141282 116.09505273 91.82237775 115.94073486 107.53063965 C115.87887029 113.87522956 115.81944007 120.21984231 115.75976562 126.56445312 C115.64357172 138.88218409 115.52482107 151.19988882 115.40429688 163.51757812 C116.1599292 163.16819687 116.91556152 162.81881561 117.6940918 162.45884705 C118.68513916 162.00377274 119.67618652 161.54869843 120.69726562 161.07983398 C121.67977295 160.62732773 122.66228027 160.17482147 123.67456055 159.70860291 C132.04791086 156.05518495 140.73487121 155.7209892 149.40429688 158.51757812 C154.22101811 160.60617321 158.41986703 163.37971225 160.77539062 168.25976562 C164.11258226 180.24049087 160.07417997 191.82334541 154.38476562 202.34570312 C149.82854282 210.39584333 144.48224021 217.5400114 138.40429688 224.51757812 C137.79328125 225.29617188 137.18226563 226.07476562 136.55273438 226.87695312 C124.63314509 241.58623352 103.59170405 250.49986441 85.27929688 253.26757812 C71.99691087 254.12450625 59.38744532 252.97274452 46.61132812 249.10351562 C44.30161879 248.38927924 44.30161879 248.38927924 41.40429688 248.51757812 C39.47658276 250.93487043 37.74684873 253.33100881 36.02929688 255.89257812 C34.94959041 257.46229248 33.86882633 259.0312798 32.78710938 260.59960938 C32.22926758 261.41381348 31.67142578 262.22801758 31.09667969 263.06689453 C28.41959062 266.94349869 25.6667997 270.76406436 22.90429688 274.58007812 C22.36530762 275.32507568 21.82631836 276.07007324 21.27099609 276.83764648 C10.98709644 291.01453896 0.57106565 304.99415865 -11.25976562 317.93554688 C-13.14592406 320.02041431 -14.9870078 322.13064555 -16.82226562 324.25976562 C-20.82058725 328.8366931 -25.04708683 333.16103775 -29.34570312 337.45507812 C-30.13992676 338.24849609 -30.93415039 339.04191406 -31.75244141 339.859375 C-36.65748613 344.71348157 -41.60614578 349.28235534 -47.04882812 353.52929688 C-49.84829808 355.71477266 -52.52558684 358.01737699 -55.22070312 360.33007812 C-68.09995227 371.0517211 -82.15846556 380.05674363 -96.59570312 388.51757812 C-97.32370117 388.948125 -98.05169922 389.37867188 -98.80175781 389.82226562 C-125.4229436 405.47481139 -157.05314259 418.79128826 -188.59570312 416.51757812 C-189.83707031 416.43636719 -191.0784375 416.35515625 -192.35742188 416.27148438 C-227.61176884 413.35637455 -262.26436714 394.69748975 -287.59570312 370.51757812 C-288.29179687 369.89625 -288.98789062 369.27492188 -289.70507812 368.63476562 C-298.67854166 360.32213855 -307.03635433 347.80735862 -307.71777344 335.27197266 C-307.77406661 332.00369589 -307.75476673 328.74999026 -307.625 325.48364258 C-307.55098863 323.49630812 -307.56639897 321.50607434 -307.59570312 319.51757812 C-308.25570313 318.85757812 -308.91570312 318.19757813 -309.59570312 317.51757812 C-309.212787 312.3536461 -307.84331333 307.53631272 -306.31054688 302.61523438 C-306.09000137 301.89266953 -305.86945587 301.17010468 -305.64222717 300.42564392 C-304.9440723 298.14226734 -304.23876885 295.86117428 -303.53320312 293.58007812 C-303.05551334 292.02228137 -302.57829517 290.46433992 -302.1015625 288.90625 C-300.93838702 285.1083318 -299.7687999 281.31244301 -298.59570312 277.51757812 C-299.58570313 277.18757813 -300.57570313 276.85757812 -301.59570312 276.51757812 C-300.01111332 271.18889654 -297.6782745 266.41941287 -295.18115234 261.47729492 C-294.73529282 260.58689011 -294.28943329 259.69648529 -293.83006287 258.77909851 C-292.3571765 255.83980736 -290.8787252 252.90335103 -289.40039062 249.96679688 C-288.36825302 247.90880009 -287.33653154 245.85059456 -286.3052063 243.79219055 C-283.58594922 238.36697712 -280.86225882 232.94400285 -278.13726807 227.52166748 C-273.7968884 218.88398609 -269.46172772 210.24369025 -265.12939835 201.60196877 C-263.62711881 198.60749001 -262.1220493 195.61442644 -260.6166687 192.62150574 C-255.11225449 181.66044034 -249.74937491 170.648072 -244.59570312 159.51757812 C-240.78326392 160.98631041 -237.64696248 162.67618813 -234.26757812 164.98632812 C-233.21634766 165.69917969 -232.16511719 166.41203125 -231.08203125 167.14648438 C-230.51911377 167.5301416 -229.95619629 167.91379883 -229.3762207 168.30908203 C-226.21889353 170.45206427 -223.03848255 172.56040693 -219.86132812 174.67382812 C-218.53310271 175.55909416 -217.20497821 176.44451161 -215.87695312 177.33007812 C-214.88501953 177.99136719 -214.88501953 177.99136719 -213.87304688 178.66601562 C-208.44726562 182.28320312 -203.02148438 185.90039062 -197.59570312 189.51757812 C-198.80726625 192.76279891 -200.12868293 195.54793683 -202.10742188 198.38867188 C-202.60999512 199.11610596 -203.11256836 199.84354004 -203.63037109 200.59301758 C-204.17580566 201.37249756 -204.72124023 202.15197754 -205.28320312 202.95507812 C-206.46712105 204.66579132 -207.65070157 206.37673806 -208.83398438 208.08789062 C-209.45225098 208.97895508 -210.07051758 209.87001953 -210.70751953 210.78808594 C-213.81898188 215.28590712 -216.89365118 219.80867921 -219.97070312 224.33007812 C-221.24141373 226.1947451 -222.51224789 228.05932788 -223.78320312 229.92382812 C-224.41484375 230.85066406 -225.04648437 231.7775 -225.69726562 232.73242188 C-227.5586865 235.46327184 -229.42081097 238.19364048 -231.28320312 240.92382812 C-238.03819698 250.82667597 -244.78853516 260.73269473 -251.53320312 270.64257812 C-252.5616333 272.15235229 -252.5616333 272.15235229 -253.61083984 273.69262695 C-254.60688232 275.15671997 -254.60688232 275.15671997 -255.62304688 276.65039062 C-256.27644043 277.60333008 -256.92983398 278.55626953 -257.60302734 279.53808594 C-259.0159114 281.65066092 -260.37447237 283.76234077 -261.70166016 285.92675781 C-262.3898584 287.02665039 -263.07805664 288.12654297 -263.78710938 289.25976562 C-264.3988501 290.2663623 -265.01059082 291.27295898 -265.64086914 292.31005859 C-266.28596436 293.03854004 -266.93105957 293.76702148 -267.59570312 294.51757812 C-270.15893555 294.64013672 -270.15893555 294.64013672 -272.59570312 294.51757812 C-274.22013337 295.85925253 -274.22013337 295.85925253 -275.39257812 297.81445312 C-276.1121167 298.8740625 -276.1121167 298.8740625 -276.84619141 299.95507812 C-277.34103027 300.71820313 -277.83586914 301.48132813 -278.34570312 302.26757812 C-279.39900922 303.82580446 -280.45370839 305.38309 -281.50976562 306.93945312 C-282.02829102 307.71353516 -282.54681641 308.48761719 -283.08105469 309.28515625 C-285.21189778 312.42577991 -287.44417469 315.48157398 -289.72070312 318.51757812 C-290.42453125 319.46632813 -291.12835938 320.41507812 -291.85351562 321.39257812 C-293.59570312 323.51757812 -293.59570312 323.51757812 -295.59570312 324.51757812 C-296.25570313 324.18757813 -296.91570312 323.85757812 -297.59570312 323.51757812 C-298.52042832 336.56647811 -294.69643887 346.4000617 -286.59570312 356.51757812 C-286.056875 357.23171875 -285.51804687 357.94585937 -284.96289062 358.68164062 C-265.2876098 382.94487931 -227.27340559 401.49047593 -196.59570312 405.51757812 C-192.19560886 405.80421478 -187.8167127 405.85202193 -183.40820312 405.83007812 C-182.21783447 405.82443848 -181.02746582 405.81879883 -179.80102539 405.81298828 C-170.7182502 405.68815188 -162.3926604 404.9260474 -153.59570312 402.51757812 C-152.95600586 402.35080566 -152.31630859 402.1840332 -151.65722656 402.01220703 C-123.33710804 394.42572273 -95.8469881 378.0056635 -72.59570312 360.51757812 C-72.06460938 360.12393066 -71.53351563 359.7302832 -70.98632812 359.32470703 C-54.89911008 347.39107593 -38.20325599 334.01480325 -25.34960938 318.58398438 C-23.54848864 316.46195126 -21.66307674 314.43291899 -19.75878906 312.40356445 C-13.24989976 305.44373102 -7.36261328 298.09756988 -1.59570312 290.51757812 C-1.11488281 289.88835449 -0.6340625 289.25913086 -0.13867188 288.61083984 C10.827869 274.23353114 21.14988707 259.40718832 31.40429688 244.51757812 C20.04493201 238.74970187 9.58477721 237.82484678 -3.09667969 237.83227539 C-4.26682617 237.82768311 -5.43697266 237.82309082 -6.64257812 237.81835938 C-7.6928418 237.83036377 -8.74310547 237.84236816 -9.82519531 237.85473633 C-12.98774547 237.46986835 -14.17761585 236.49830986 -16.59570312 234.51757812 C-43.20910323 235.65490292 -65.34246044 262.01019603 -82.59570312 279.51757812 C-79.18017052 281.79459986 -76.52540283 282.23582025 -72.55664062 282.95507812 C-71.90953125 283.14070313 -71.26242187 283.32632812 -70.59570312 283.51757812 C-70.26570312 284.17757813 -69.93570313 284.83757812 -69.59570312 285.51757812 C-70.61277344 285.62972656 -70.61277344 285.62972656 -71.65039062 285.74414062 C-79.83437493 286.90032677 -86.69369601 289.27991448 -92.41210938 295.49023438 C-96.58899686 301.2583171 -98.64267364 307.72792856 -100.59570312 314.51757812 C-100.92570313 314.51757812 -101.25570312 314.51757812 -101.59570312 314.51757812 C-101.716875 313.793125 -101.83804688 313.06867188 -101.96289062 312.32226562 C-102.13046875 311.35546875 -102.29804687 310.38867188 -102.47070312 309.39257812 C-102.633125 308.44125 -102.79554688 307.48992187 -102.96289062 306.50976562 C-103.61833246 303.41057768 -104.54172492 300.50237355 -105.59570312 297.51757812 C-106.48128906 297.97648437 -107.366875 298.43539063 -108.27929688 298.90820312 C-129.48643617 309.57277961 -154.22674433 312.69533143 -177.23632812 305.70507812 C-178.34492187 305.31320312 -179.45351563 304.92132813 -180.59570312 304.51757812 C-181.64242187 304.16695313 -182.68914062 303.81632812 -183.76757812 303.45507812 C-196.79276948 298.59593938 -208.23369258 290.42632275 -214.93164062 278.04882812 C-219.65577953 267.46139625 -219.22659882 257.39696522 -215.59570312 246.51757812 C-202.11830646 214.74020196 -163.88669661 194.2176923 -133.59570312 181.51757812 C-120.13956012 176.16168784 -105.92895588 171.45361342 -91.62304688 169.00976562 C-90.95402344 168.84734375 -90.285 168.68492187 -89.59570312 168.51757812 C-89.26570312 167.85757813 -88.93570313 167.19757813 -88.59570312 166.51757812 C-86.59688608 165.51620906 -84.55494568 164.60049572 -82.49804688 163.72460938 C-81.87614975 163.45739578 -81.25425262 163.19018219 -80.61351013 162.91487122 C-78.58943087 162.04681997 -76.56153566 161.18813856 -74.53320312 160.33007812 C-72.46590917 159.4491612 -70.39930908 158.56663124 -68.33276367 157.68395996 C-66.97162652 157.10280849 -65.6101365 156.5224828 -64.24829102 155.94299316 C-60.53965865 154.36202149 -56.85106603 152.74680024 -53.18554688 151.06835938 C-52.45150635 150.73408936 -51.71746582 150.39981934 -50.96118164 150.05541992 C-49.11477883 149.20865185 -47.27300191 148.35181663 -45.43164062 147.49414062 C-42.59570312 146.51757812 -42.59570312 146.51757812 -40.32226562 146.66601562 C-38.59570312 147.51757812 -38.59570312 147.51757812 -36.59570312 150.51757812 C-35.40074219 149.99357422 -35.40074219 149.99357422 -34.18164062 149.45898438 C-32.59222656 148.77642578 -32.59222656 148.77642578 -30.97070312 148.08007812 C-29.9265625 147.62761719 -28.88242187 147.17515625 -27.80664062 146.70898438 C-24.70110286 145.5566863 -21.85836387 145.01355036 -18.59570312 144.51757812 C-18.5984685 143.48086078 -18.5984685 143.48086078 -18.60128975 142.42319965 C-18.64545905 125.60587386 -18.67855496 108.78856644 -18.69932747 91.97119617 C-18.70963991 83.83844227 -18.72369963 75.70572709 -18.74658203 67.57299805 C-18.76651689 60.48448828 -18.7794198 53.39600656 -18.78388011 46.30746955 C-18.78648733 42.55417038 -18.79261476 38.80095145 -18.80716324 35.04767799 C-18.82327282 30.85767686 -18.82368275 26.6678152 -18.82275391 22.4777832 C-18.82994446 21.23340988 -18.83713501 19.98903656 -18.84454346 18.70695496 C-18.84179413 17.56417084 -18.8390448 16.42138672 -18.83621216 15.24397278 C-18.83897754 13.75758159 -18.83897754 13.75758159 -18.84179878 12.2411623 C-18.47234104 8.15230811 -17.3150898 5.38077744 -14.69543457 2.23742676 C-9.92046446 -0.41190786 -5.37478778 -0.03936228 0 0 Z M-9.59570312 8.51757812 C-9.26570313 9.17757812 -8.93570312 9.83757812 -8.59570312 10.51757812 C48.32929687 10.02257812 48.32929687 10.02257812 106.40429688 9.51757812 C106.40429688 9.18757813 106.40429688 8.85757813 106.40429688 8.51757812 C68.12429688 8.51757812 29.84429688 8.51757812 -9.59570312 8.51757812 Z M106.40429688 9.51757812 C106.40429688 61.98757812 106.40429688 114.45757812 106.40429688 168.51757812 C106.73429687 168.51757812 107.06429688 168.51757812 107.40429688 168.51757812 C107.58142551 148.08194983 107.74710915 127.64625955 107.89907265 107.21042824 C107.96989633 97.72226363 108.04450109 88.23415659 108.12792969 78.74609375 C108.20061496 70.47875317 108.26628489 62.21139215 108.32344091 53.94392908 C108.3539673 49.56415525 108.3880672 45.18447355 108.43056107 40.80479813 C108.47041147 36.68616804 108.50091233 32.56757663 108.52411079 28.44882011 C108.53431612 26.93382839 108.54799527 25.41885565 108.56533241 23.90392876 C108.58841977 21.84202713 108.59922466 19.78042242 108.60684204 17.71841431 C108.61605997 16.5624859 108.6252779 15.4065575 108.63477516 14.21560097 C108.68329642 11.36700736 108.68329642 11.36700736 106.40429688 9.51757812 Z M-10.59570312 10.51757812 C-10.59570312 53.41757813 -10.59570312 96.31757813 -10.59570312 140.51757812 C-10.26570313 140.51757812 -9.93570312 140.51757812 -9.59570312 140.51757812 C-9.59570312 97.61757812 -9.59570312 54.71757813 -9.59570312 10.51757812 C-9.92570312 10.51757812 -10.25570313 10.51757812 -10.59570312 10.51757812 Z M37.73632812 26.86132812 C34.57120993 27.75201465 32.18374855 27.86400109 29.15429688 26.51757812 C28.57679688 26.18757813 27.99929688 25.85757813 27.40429688 25.51757812 C25.75429688 27.16757813 24.10429688 28.81757812 22.40429688 30.51757812 C22.93023438 31.32195312 22.93023438 31.32195312 23.46679688 32.14257812 C25.03271857 36.10957974 23.83598761 39.40026092 22.34179688 43.26757812 C20.25576653 50.49914998 21.19267953 56.62120592 23.80273438 63.54882812 C24.59951325 66.15646808 24.21225165 67.94681295 23.40429688 70.51757812 C23.40429688 71.83757812 23.40429688 73.15757812 23.40429688 74.51757812 C25.82310617 76.78635348 25.82310617 76.78635348 28.40429688 78.51757812 C29.25701172 77.73447266 29.25701172 77.73447266 30.12695312 76.93554688 C32.40429688 75.51757812 32.40429688 75.51757812 34.52539062 75.88085938 C35.28980469 76.19410156 36.05421875 76.50734375 36.84179688 76.83007812 C45.71662368 79.86274823 54.03857941 79.61143987 62.40429688 75.51757812 C65.56475933 75.78095 66.67226882 76.69622609 69.40429688 78.51757812 C71.05429687 76.86757812 72.70429687 75.21757812 74.40429688 73.51757812 C74.05367187 72.79570312 73.70304687 72.07382813 73.34179688 71.33007812 C72.02952003 67.39324758 72.74188251 64.97337853 74.43164062 61.25976562 C76.57476436 55.21770595 76.60961413 47.30812287 73.84179688 41.45507812 C73.36742187 40.48570313 72.89304687 39.51632813 72.40429688 38.51757812 C72.66210287 35.50984153 73.98576551 33.16550334 75.40429688 30.51757812 C72.92929687 28.04257813 72.92929687 28.04257813 70.40429688 25.51757812 C66.85910804 26.91517718 66.85910804 26.91517718 63.40429688 28.51757812 C61.65144485 27.93910789 59.92486869 27.27979858 58.21679688 26.58007812 C50.54683518 23.71131323 45.36535839 24.26625641 37.73632812 26.86132812 Z M26.15039062 99.18945312 C23.40429688 100.51757812 23.40429688 100.51757812 21.34179688 99.95507812 C18.9769311 98.20050029 16.66660104 96.4028316 14.40429688 94.51757812 C11.29987656 95.90802802 9.03865257 97.53329411 6.59179688 99.89257812 C5.96660156 100.4778125 5.34140625 101.06304687 4.69726562 101.66601562 C3.18465495 103.419259 3.18465495 103.419259 3.54492188 105.54101562 C4.45432482 107.6326424 5.45726644 109.06451815 6.96679688 110.76757812 C7.77117187 111.67507812 8.57554687 112.58257812 9.40429688 113.51757812 C8.40090727 116.03280139 7.39281856 118.54568917 6.36914062 121.05273438 C6.03011719 121.88675781 5.69109375 122.72078125 5.34179688 123.58007812 C4.82939453 124.83498047 4.82939453 124.83498047 4.30664062 126.11523438 C0.06560759 137.40629634 2.01106214 149.60061022 6.40429688 160.51757812 C7.38092052 162.52909652 8.37491031 164.53254329 9.40429688 166.51757812 C7.42429687 169.15757812 5.44429687 171.79757813 3.40429688 174.51757812 C5.15106606 178.0111165 6.31834903 179.65703576 9.02929688 182.26757812 C9.6609375 182.88117188 10.29257812 183.49476563 10.94335938 184.12695312 C11.42546875 184.58585937 11.90757812 185.04476562 12.40429688 185.51757812 C16.51388455 184.06713542 19.83688433 182.0064706 23.40429688 179.51757812 C24.03335937 179.8553125 24.66242188 180.19304687 25.31054688 180.54101562 C37.67599639 186.98445769 49.8372473 188.77522966 63.46679688 184.70507812 C67.64303456 183.30224925 71.49441505 181.54513943 75.40429688 179.51757812 C77.71429687 181.49757813 80.02429688 183.47757812 82.40429688 185.51757812 C85.81151878 183.81396717 87.88465394 182.38525677 90.65429688 179.89257812 C91.36070312 179.2609375 92.06710937 178.62929687 92.79492188 177.97851562 C93.32601562 177.49640625 93.85710937 177.01429688 94.40429688 176.51757812 C93.02895765 172.50617206 91.09413206 169.77052921 88.40429688 166.51757812 C88.82582031 165.49277344 89.24734375 164.46796875 89.68164062 163.41210938 C90.23525718 162.05152632 90.78862974 160.69084396 91.34179688 159.33007812 C91.61958984 158.65654297 91.89738281 157.98300781 92.18359375 157.2890625 C97.18866941 144.92712865 96.41277929 132.84615023 91.40429688 120.51757812 C90.85257813 119.61007813 90.30085938 118.70257813 89.73242188 117.76757812 C89.29414062 117.02507812 88.85585938 116.28257812 88.40429688 115.51757812 C89.40165891 111.97140201 92.07222577 109.31606345 94.40429688 106.51757812 C92.92708265 103.06556174 90.96635687 100.86795876 88.27929688 98.26757812 C87.19261719 97.20796875 87.19261719 97.20796875 86.08398438 96.12695312 C85.5296875 95.59585938 84.97539063 95.06476563 84.40429688 94.51757812 C83.81261719 94.97390625 83.2209375 95.43023437 82.61132812 95.90039062 C81.42603516 96.76277344 81.42603516 96.76277344 80.21679688 97.64257812 C79.43949219 98.22265625 78.6621875 98.80273438 77.86132812 99.40039062 C75.40429688 100.51757812 75.40429688 100.51757812 72.94726562 99.82617188 C72.10808594 99.39433594 71.26890625 98.9625 70.40429688 98.51757812 C68.57444417 97.82086697 66.74100029 97.13352335 64.90429688 96.45507812 C63.98648438 96.11347656 63.06867188 95.771875 62.12304688 95.41992188 C49.87182263 91.35378279 37.50291128 93.35646532 26.15039062 99.18945312 Z M-10.59570312 150.51757812 C-10.59570312 174.93757813 -10.59570312 199.35757813 -10.59570312 224.51757812 C-10.26570313 224.51757812 -9.93570312 224.51757812 -9.59570312 224.51757812 C-9.59570312 200.09757812 -9.59570312 175.67757812 -9.59570312 150.51757812 C-9.92570312 150.51757812 -10.25570313 150.51757812 -10.59570312 150.51757812 Z M-36.59570312 152.51757812 C-35.59570312 154.51757812 -35.59570312 154.51757812 -35.59570312 154.51757812 Z M-35.59570312 154.51757812 C-34.59570312 157.51757812 -34.59570312 157.51757812 -34.59570312 157.51757812 Z M-28.34179688 156.86132812 C-30.59570312 157.51757812 -30.59570312 157.51757812 -34.59570312 157.51757812 C-33.60570312 160.98257813 -33.60570312 160.98257813 -32.59570312 164.51757812 C-33.2030127 164.62964096 -33.81032227 164.7417038 -34.43603516 164.85716248 C-40.55828216 166.02826855 -46.49753617 167.52969243 -52.47070312 169.30273438 C-53.36184814 169.56388535 -54.25299316 169.82503632 -55.17114258 170.09410095 C-57.03379867 170.64086871 -58.89585547 171.18968199 -60.75732422 171.74047852 C-63.6148105 172.58573014 -66.47421752 173.42421909 -69.33398438 174.26171875 C-71.1505054 174.79583377 -72.96691578 175.33032525 -74.78320312 175.86523438 C-75.63833496 176.11628433 -76.4934668 176.36733429 -77.37451172 176.62599182 C-78.557146 176.97656898 -78.557146 176.97656898 -79.76367188 177.33422852 C-80.80430786 177.64161705 -80.80430786 177.64161705 -81.8659668 177.95521545 C-83.67898151 178.49723489 -83.67898151 178.49723489 -85.59570312 179.51757812 C-85.59570312 178.85757813 -85.59570312 178.19757813 -85.59570312 177.51757812 C-126.50290167 184.84157437 -175.00880279 204.88083658 -200.72460938 239.37304688 C-206.84464006 248.63614133 -209.90509222 256.25385602 -208.59570312 267.51757812 C-206.02458528 277.26639996 -198.78062226 284.39143742 -190.59960938 289.84960938 C-172.72394174 299.77537021 -150.72125271 302.83645287 -130.84570312 297.83007812 C-124.7156994 296.07054002 -119.09665223 293.74409635 -113.59570312 290.51757812 C-116.09566971 287.53980222 -118.64281383 286.5720933 -122.28320312 285.33007812 C-123.77400391 284.81380859 -123.77400391 284.81380859 -125.29492188 284.28710938 C-126.05417969 284.03316406 -126.8134375 283.77921875 -127.59570312 283.51757812 C-126.9434375 283.34742188 -126.29117188 283.17726563 -125.61914062 283.00195312 C-115.86760419 280.29798727 -109.56597189 275.7362247 -103.59570312 267.51757812 C-101.97460887 264.26180503 -100.69511862 260.98218353 -99.59570312 257.51757812 C-99.42554688 258.16984375 -99.25539063 258.82210937 -99.08007812 259.49414062 C-97.58532214 264.88480316 -95.9936341 269.06511685 -92.59570312 273.51757812 C-88.88302218 271.97630462 -86.61454614 269.70914579 -83.84570312 266.83007812 C-80.17332547 263.0768111 -76.42677785 259.54945699 -72.43164062 256.14648438 C-70.68613629 254.59781351 -69.12256937 252.97392818 -67.53320312 251.26757812 C-59.75393161 243.43550612 -50.33553346 237.08678087 -40.53320312 232.08007812 C-39.94611572 231.77465088 -39.35902832 231.46922363 -38.75415039 231.15454102 C-32.17586428 227.96033228 -25.87971018 226.598723 -18.59570312 224.51757812 C-18.59570312 201.41757812 -18.59570312 178.31757813 -18.59570312 154.51757812 C-22.25210108 154.51757812 -24.93793866 155.61727842 -28.34179688 156.86132812 Z M115.40429688 174.51757812 C115.40429688 193.32757813 115.40429688 212.13757813 115.40429688 231.51757812 C132.89702978 221.52173075 146.76956348 201.85912809 152.40429688 182.51757812 C153.04458925 177.98341466 153.0239382 174.59621303 150.71679688 170.58007812 C146.95475514 167.2247436 143.07407671 166.16036686 138.09179688 165.89257812 C129.43706657 166.29437798 129.43706657 166.29437798 115.40429688 174.51757812 Z M106.40429688 179.51757812 C106.40429688 195.68757813 106.40429688 211.85757813 106.40429688 228.51757812 C106.73429687 228.51757812 107.06429688 228.51757812 107.40429688 228.51757812 C107.40429688 212.34757812 107.40429688 196.17757812 107.40429688 179.51757812 C107.07429688 179.51757812 106.74429687 179.51757812 106.40429688 179.51757812 Z M-236.59570312 190.51757812 C-238.36766186 192.80401625 -238.36766186 192.80401625 -239.59570312 195.51757812 C-239.26570313 196.50757813 -238.93570313 197.49757813 -238.59570312 198.51757812 C-236.28570312 198.84757813 -233.97570312 199.17757812 -231.59570312 199.51757812 C-229.31835303 196.70247819 -229.31835303 196.70247819 -229.59570312 193.51757812 C-232.80017729 191.1716304 -232.80017729 191.1716304 -236.59570312 190.51757812 Z M-2.59570312 196.51757812 C-3.73900825 199.94749351 -3.79951963 202.71621973 -3.84570312 206.33007812 C-3.87148438 207.53277344 -3.89726563 208.73546875 -3.92382812 209.97460938 C-3.55863825 213.9177905 -2.80060766 216.23418767 -0.59570312 219.51757812 C3.80170349 222.40207736 9.25611868 221.84859844 14.34179688 221.83007812 C15.22287109 221.84619141 16.10394531 221.86230469 17.01171875 221.87890625 C22.21768534 221.88280585 25.9252394 221.47275913 30.40429688 218.51757812 C32.77005925 214.6463306 32.79520363 210.97391508 32.40429688 206.51757812 C30.4075467 201.11418607 27.51107652 198.71730352 22.52929688 196.14257812 C21.86889404 195.79678711 21.20849121 195.45099609 20.52807617 195.09472656 C12.90727141 191.39504136 3.29411824 189.09775719 -2.59570312 196.51757812 Z M87.46679688 194.51757812 C86.94085937 195.50757813 86.94085937 195.50757813 86.40429688 196.51757812 C87.35304688 196.93007813 88.30179688 197.34257812 89.27929688 197.76757812 C92.40429688 199.51757812 92.40429688 199.51757812 93.77929688 201.20507812 C95.05764552 205.93496811 95.08593189 209.94981759 93.15429688 214.39257812 C90.3149455 217.84036194 88.4614085 218.40012128 84.02929688 218.89257812 C78.82854178 218.35456898 75.84421613 216.24548123 72.52929688 212.26757812 C71.97242188 211.40132812 71.97242188 211.40132812 71.40429688 210.51757812 C69.75429688 212.16757812 68.10429688 213.81757813 66.40429688 215.51757812 C67.34266416 218.07676163 67.98430724 219.28159181 70.39257812 220.63476562 C74.59343018 221.86614379 78.55032241 221.80758402 82.90429688 221.76757812 C83.74605469 221.7753125 84.5878125 221.78304687 85.45507812 221.79101562 C90.62827224 221.7747221 94.83702188 221.60844755 99.00805664 218.21142578 C101.60958368 215.05538546 100.87419748 211.06599712 100.84179688 207.14257812 C100.86177734 206.29179687 100.88175781 205.44101562 100.90234375 204.56445312 C100.8991233 200.42940154 100.73396032 198.07772056 98.59960938 194.45117188 C96.43482024 192.19631502 96.43482024 192.19631502 92.84179688 191.95507812 C89.35022555 192.1755599 89.35022555 192.1755599 87.46679688 194.51757812 Z M18.40429688 228.51757812 C18.40429688 228.84757813 18.40429688 229.17757812 18.40429688 229.51757812 C26.65429688 229.51757812 34.90429688 229.51757812 43.40429688 229.51757812 C43.40429688 229.18757812 43.40429688 228.85757813 43.40429688 228.51757812 C35.15429688 228.51757812 26.90429688 228.51757812 18.40429688 228.51757812 Z M55.40429688 228.51757812 C55.40429688 228.84757813 55.40429688 229.17757812 55.40429688 229.51757812 C62.34570515 229.71085703 69.2873866 229.88834003 76.22949219 230.0546875 C78.59254156 230.11319491 80.95550328 230.17535871 83.31835938 230.24121094 C86.70882206 230.33507442 90.09937946 230.41591313 93.49023438 230.49414062 C95.0824733 230.54243515 95.0824733 230.54243515 96.70687866 230.59170532 C98.17817734 230.62196304 98.17817734 230.62196304 99.67919922 230.65283203 C100.54523773 230.67503815 101.41127625 230.69724426 102.30355835 230.72012329 C104.62480297 230.72105939 104.62480297 230.72105939 106.40429688 228.51757812 C89.57429688 228.51757812 72.74429687 228.51757812 55.40429688 228.51757812 Z M48.40429688 237.51757812 C48.40429688 238.17757812 48.40429688 238.83757812 48.40429688 239.51757812 C65.17811993 245.45333857 83.70914872 245.99888348 100.40429688 239.51757812 C100.40429688 239.18757812 100.40429688 238.85757813 100.40429688 238.51757812 C89.49717402 237.27149132 78.612463 237.40360854 67.65429688 237.45507812 C65.78190224 237.46010447 63.9095063 237.46466536 62.03710938 237.46875 C57.49280565 237.4796627 52.94856606 237.49686442 48.40429688 237.51757812 Z " fill="#FFFEFE" transform="translate(722.595703125,59.482421875)"/>
<path d="M0 0 C9.57 0 19.14 0 29 0 C29.54003662 2.14556396 30.08007324 4.29112793 30.63647461 6.50170898 C32.41742332 13.57526044 34.20221207 20.64783879 35.98891354 27.71993923 C37.07251117 32.00952304 38.15479611 36.2994293 39.23413086 40.59008789 C40.27498314 44.72756705 41.31921836 48.8641786 42.36584663 53.00020027 C42.76538317 54.58160782 43.16368104 56.16332882 43.56074333 57.74535942 C44.11530404 59.95403746 44.67418195 62.16157933 45.23413086 64.36889648 C45.55167831 65.62798325 45.86922577 66.88707001 46.19639587 68.18431091 C46.7196048 70.88156983 46.7196048 70.88156983 48 72 C48.23581284 71.1127272 48.47162567 70.22545441 48.71458435 69.31129456 C50.93301063 60.96664168 53.15468944 52.62286321 55.38006496 44.28006077 C56.52414925 39.99049066 57.66695437 35.70058813 58.80688477 31.40991211 C59.90616983 27.27241089 61.00875127 23.13580133 62.11366463 18.99979973 C62.5354982 17.41840121 62.95612482 15.83668025 63.37554741 14.25464058 C63.96132395 12.04593967 64.55130704 9.8384043 65.14233398 7.63110352 C65.47764633 6.37201675 65.81295868 5.11292999 66.15843201 3.81568909 C67 1 67 1 68 0 C74.6 0 81.2 0 88 0 C97.405 35.64 97.405 35.64 107 72 C108.77842348 66.66472956 110.44392573 61.60205413 111.80932617 56.19506836 C112.12943161 54.93444077 112.44953705 53.67381317 112.77934265 52.37498474 C113.11729141 51.02995618 113.45516507 49.68490875 113.79296875 48.33984375 C114.14710986 46.94015662 114.50155122 45.54054542 114.85627747 44.14100647 C115.78149991 40.48729111 116.70268501 36.83256996 117.62298584 33.1776123 C118.73211084 28.77636832 119.84632976 24.37641142 120.95967865 19.97623444 C122.64365535 13.31845884 124.32121969 6.65909749 126 0 C135.57 0 145.14 0 155 0 C152.34211322 10.80836178 149.51195706 21.54133824 146.48046875 32.25 C146.0543752 33.76142529 145.62846099 35.27290116 145.20271301 36.78442383 C144.31587634 39.93107647 143.42749534 43.07728717 142.5378418 46.22314453 C141.41955517 50.1776024 140.30426713 54.13289778 139.18998528 58.08848572 C135.13955028 72.46547135 131.07450013 86.8385207 126.92578125 101.1875 C126.63946335 102.18547607 126.35314545 103.18345215 126.05815125 104.21166992 C125.6683886 105.55128784 125.6683886 105.55128784 125.27075195 106.91796875 C125.0475679 107.68906982 124.82438385 108.4601709 124.59443665 109.25463867 C124 111 124 111 123 112 C120.92737924 112.08767112 118.85179706 112.10695873 116.77734375 112.09765625 C114.88725586 112.09282227 114.88725586 112.09282227 112.95898438 112.08789062 C111.61848891 112.07953403 110.27799412 112.07106907 108.9375 112.0625 C107.59310058 112.0574866 106.2486994 112.05292342 104.90429688 112.04882812 C101.60282059 112.03699488 98.30143197 112.02050971 95 112 C92.48173186 105.59592737 90.51235253 99.12026692 88.64453125 92.5 C88.33803146 91.42371338 88.03153168 90.34742676 87.71574402 89.23852539 C86.74487126 85.82656261 85.77861795 82.41331182 84.8125 79 C84.15199822 76.67569441 83.49119408 74.35147472 82.83007812 72.02734375 C81.21655202 66.3525518 79.6068088 60.67669738 78 55 C76.07094087 57.89358869 75.33071985 59.88417976 74.41186523 63.18994141 C74.11493271 64.24758698 73.81800018 65.30523254 73.5120697 66.39492798 C73.19742264 67.53561737 72.88277557 68.67630676 72.55859375 69.8515625 C72.23085464 71.02133636 71.90311554 72.19111023 71.56544495 73.39633179 C70.51773409 77.13782854 69.47708717 80.8812386 68.4375 84.625 C67.39364212 88.37569762 66.34824329 92.12594059 65.29884338 95.87509155 C64.64547866 98.2100975 63.99545225 100.54604046 63.34898376 102.88296509 C63.0552034 103.93430634 62.76142303 104.98564758 62.45874023 106.06884766 C62.20051987 106.99911774 61.9422995 107.92938782 61.67625427 108.8878479 C61 111 61 111 60 112 C57.85441173 112.08775605 55.70595579 112.10695219 53.55859375 112.09765625 C52.25341797 112.09443359 50.94824219 112.09121094 49.60351562 112.08789062 C48.2148431 112.07953401 46.82617123 112.07106905 45.4375 112.0625 C44.04492344 112.05748666 42.65234519 112.05292347 41.25976562 112.04882812 C37.8398013 112.03699434 34.41992156 112.0205088 31 112 C30.66079781 110.79233475 30.66079781 110.79233475 30.31474304 109.56027222 C27.67303008 100.15621842 25.02905849 90.75280117 22.38368225 81.34977722 C21.69107906 78.88772278 20.99867217 76.42561319 20.30627441 73.96350098 C14.59912669 53.67277317 8.87736113 33.38770181 2.8972168 13.17529297 C2.69313705 12.48033722 2.48905731 11.78538147 2.27879333 11.06936646 C1.75305982 9.27938924 1.2229502 7.49069881 0.69238281 5.70214844 C0 3 0 3 0 0 Z " fill="#FFFFFF" transform="translate(482,599)"/>
<path d="M0 0 C8.91 0 17.82 0 27 0 C33.95407412 8.41442968 33.95407412 8.41442968 35.55859375 12.55078125 C38.13882465 18.59692843 41.63956018 23.81889027 45.3125 29.25 C46.58672407 31.18527172 47.8575355 33.12279452 49.125 35.0625 C49.76050781 36.03316406 50.39601563 37.00382813 51.05078125 38.00390625 C56.01037111 45.62716361 60.86334227 53.31946202 65.72583008 61.00488281 C66.79739121 62.68275167 67.89567464 64.34351195 69 66 C69.33 44.22 69.66 22.44 70 0 C78.58 0 87.16 0 96 0 C96 36.96 96 73.92 96 112 C87.42 112 78.84 112 70 112 C62.13046126 100.7578018 62.13046126 100.7578018 59.640625 96.80859375 C59.08802002 95.93549561 58.53541504 95.06239746 57.96606445 94.1628418 C57.39976318 93.263479 56.83346191 92.36411621 56.25 91.4375 C55.0200409 89.49446896 53.78956672 87.55176388 52.55859375 85.609375 C51.95644043 84.65869141 51.35428711 83.70800781 50.73388672 82.72851562 C46.53582368 76.12227054 42.26046041 69.56612134 38 63 C34.37 57.39 30.74 51.78 27 46 C26.67 67.78 26.34 89.56 26 112 C17.42 112 8.84 112 0 112 C0 75.04 0 38.08 0 0 Z " fill="#FFFFFF" transform="translate(925,599)"/>
<path d="M0 0 C11.67158825 11.1836456 17.55985259 24.50280593 18.7265625 40.6796875 C19.02725825 58.2954467 13.42802043 73.65382568 1.3984375 86.48828125 C-9.68847652 97.12874235 -23.25768555 101.84487874 -38.4765625 101.86328125 C-55.96323414 100.83023405 -68.6596638 95.20482772 -80.7265625 82.61328125 C-92.69833952 68.51318831 -94.75183901 51.66022044 -93.4765625 33.86328125 C-91.70917393 20.41639985 -84.89710208 10.30046489 -75.4765625 0.86328125 C-74.91195313 0.28707031 -74.34734375 -0.28914062 -73.765625 -0.8828125 C-53.27789243 -20.12129308 -20.31075175 -17.52362966 0 0 Z M-54.4765625 16.86328125 C-62.6262812 24.9251797 -65.56153801 32.5162569 -65.7890625 43.98828125 C-65.80009011 54.01728007 -63.32801203 61.88141056 -56.34765625 69.20703125 C-49.61398766 75.16752286 -42.90815991 76.28466606 -34.12890625 76.203125 C-27.21098083 75.55942499 -21.87454467 72.68622522 -17.1015625 67.67578125 C-10.53182293 59.02159173 -8.83014131 48.83965701 -9.6953125 38.1640625 C-11.22335346 28.80481161 -15.10870686 21.12158014 -22.57421875 15.19921875 C-31.91755569 8.63777884 -45.84016051 9.57031957 -54.4765625 16.86328125 Z " fill="#FFFFFF" transform="translate(440.4765625,611.13671875)"/>
<path d="M0 0 C8.58 0 17.16 0 26 0 C26 14.52 26 29.04 26 44 C37.22 44 48.44 44 60 44 C60 29.48 60 14.96 60 0 C68.58 0 77.16 0 86 0 C86 36.96 86 73.92 86 112 C77.42 112 68.84 112 60 112 C60 97.15 60 82.3 60 67 C48.78 67 37.56 67 26 67 C26 81.85 26 96.7 26 112 C17.42 112 8.84 112 0 112 C0 75.04 0 38.08 0 0 Z " fill="#FFFFFF" transform="translate(224,599)"/>
<path d="M0 0 C-1.55652055 5.3537465 -3.9817509 10.00150947 -6.625 14.875 C-7.04523438 15.65875 -7.46546875 16.4425 -7.8984375 17.25 C-8.9281022 19.16892057 -9.96347567 21.08477603 -11 23 C-11.89203125 22.65066406 -12.7840625 22.30132813 -13.703125 21.94140625 C-14.87359375 21.48636719 -16.0440625 21.03132812 -17.25 20.5625 C-18.41015625 20.11003906 -19.5703125 19.65757812 -20.765625 19.19140625 C-30.39008593 15.646164 -40.82841368 16.00780098 -50.3125 19.96484375 C-58.0972506 23.87036897 -63.17131902 29.28948905 -66.4375 37.375 C-69.15738607 45.86292032 -68.95848428 53.941657 -65 62 C-60.01541661 70.33533111 -52.97843422 75.94677922 -43.5 78.375 C-31.67761817 80.35917597 -21.96623952 77.50000956 -11 73 C-9.34703881 76.07956288 -7.70389829 79.16426079 -6.0625 82.25 C-5.59392578 83.12269531 -5.12535156 83.99539063 -4.64257812 84.89453125 C-4.19462891 85.73886719 -3.74667969 86.58320312 -3.28515625 87.453125 C-2.87144775 88.22817383 -2.45773926 89.00322266 -2.03149414 89.80175781 C-1.0607156 91.8706075 -0.46441571 93.7690269 0 96 C-16.95321976 105.28820019 -34.04158828 107.87219329 -53 104 C-57.21488629 102.68562749 -61.07391198 101.01078614 -65 99 C-65.84949219 98.57976562 -66.69898438 98.15953125 -67.57421875 97.7265625 C-81.69088224 90.05879866 -91.05501719 77.0885373 -96 62 C-99.72741122 47.61219271 -96.79466808 32.73219015 -89.9375 19.875 C-83.79936229 9.95954678 -75.47329569 2.1575444 -65 -3 C-64.06414062 -3.46148438 -63.12828125 -3.92296875 -62.1640625 -4.3984375 C-42.49885757 -13.32778252 -18.22033512 -11.76127453 0 0 Z " fill="#FFFFFF" transform="translate(1152,607)"/>
<path d="M0 0 C-0.57229633 5.19228855 -3.0982161 9.3103703 -5.5625 13.8125 C-6.19961914 14.99489258 -6.19961914 14.99489258 -6.84960938 16.20117188 C-7.89396554 18.1373378 -8.9442077 20.07005367 -10 22 C-11.03640625 21.57847656 -12.0728125 21.15695312 -13.140625 20.72265625 C-14.51036091 20.16913284 -15.88015568 19.61575506 -17.25 19.0625 C-17.93191406 18.78470703 -18.61382813 18.50691406 -19.31640625 18.22070312 C-26.50188709 15.3255822 -32.81612431 13.60537477 -40.375 16.125 C-43.20281657 17.84068837 -43.20281657 17.84068837 -44.5 20.9375 C-45.06327703 24.38757183 -44.85150275 25.14980788 -43 28 C-37.68998275 32.25029278 -31.28721504 34.77819086 -25.0625 37.375 C-13.80742668 42.11779507 -4.65337085 48.55460663 1.875 59 C5.06594436 67.48370836 3.88219935 78.32752539 0.37109375 86.50390625 C-4.76798064 95.85965706 -11.886617 100.80799708 -22 104 C-39.13123296 108.10387262 -56.86533568 105.84973753 -72.2109375 97.1875 C-79.72386152 92.55227695 -79.72386152 92.55227695 -81 90 C-80.01196289 87.84521484 -80.01196289 87.84521484 -78.47265625 85.2109375 C-77.92802734 84.26992188 -77.38339844 83.32890625 -76.82226562 82.359375 C-76.24154297 81.37453125 -75.66082031 80.3896875 -75.0625 79.375 C-74.48564453 78.38242187 -73.90878906 77.38984375 -73.31445312 76.3671875 C-71.88340126 73.90719752 -70.44500804 71.45180958 -69 69 C-65.68532775 69.74383697 -63.63110727 70.80389784 -60.875 72.8125 C-52.26366091 78.64236252 -44.48869429 81.25441156 -34 80 C-30.54657657 78.80916434 -28.80738129 78.0180025 -26.5625 75.1875 C-25.71504721 71.89185027 -25.83316046 70.24122094 -27 67 C-31.27596518 62.11318265 -37.53051878 59.75017788 -43.3125 57.125 C-55.14247044 51.73326594 -65.19653431 45.71265632 -70.12890625 33.1171875 C-72.33847053 25.2103162 -71.84961148 16.79306854 -68.37890625 9.34375 C-63.03343809 0.25796842 -55.57631728 -5.43322803 -45.61328125 -8.80859375 C-30.5787897 -12.6131335 -12.74950325 -8.49966883 0 0 Z " fill="#FFFFFF" transform="translate(754,607)"/>
<path d="M0 0 C-0.65031677 3.03281368 -1.66511771 5.56502084 -3.06640625 8.328125 C-3.46923828 9.12734375 -3.87207031 9.9265625 -4.28710938 10.75 C-4.70798828 11.575 -5.12886719 12.4 -5.5625 13.25 C-6.19961914 14.51070312 -6.19961914 14.51070312 -6.84960938 15.796875 C-7.89614911 17.86643672 -8.94638314 19.93403479 -10 22 C-12.51522326 20.9966104 -15.02811104 19.98852169 -17.53515625 18.96484375 C-18.36917969 18.62582031 -19.20320313 18.28679688 -20.0625 17.9375 C-20.89910156 17.59589844 -21.73570312 17.25429688 -22.59765625 16.90234375 C-28.61838896 14.64089781 -34.23026029 14.07675343 -40.375 16.125 C-43.18704488 17.8445957 -43.18704488 17.8445957 -44.5625 20.875 C-45.26132475 23.95079915 -45.26132475 23.95079915 -43.9921875 26.44921875 C-41.38817824 29.78337178 -38.32024474 31.21677007 -34.5625 32.9375 C-33.84819824 33.28103516 -33.13389648 33.62457031 -32.39794922 33.97851562 C-29.1548555 35.53659331 -25.89179864 37.05027664 -22.62890625 38.56640625 C-12.2464513 43.52136199 -3.34795484 49.50143182 2 60 C4.84691166 68.41847498 3.65354253 79.0249165 0 87 C-5.4209051 95.98810989 -12.8605905 101.05585366 -22.75 104.1875 C-42.13986991 108.35050882 -60.21415952 104.63954333 -77.07421875 94.4296875 C-79 93 -79 93 -81 90 C-79.56339259 87.436996 -78.12574581 84.8745844 -76.6875 82.3125 C-76.28337891 81.59126953 -75.87925781 80.87003906 -75.46289062 80.12695312 C-73.360952 76.38447704 -71.23421775 72.66585243 -69 69 C-65.44771395 70.31869944 -62.38297218 71.90871071 -59.1875 73.9375 C-50.6868203 79.05793888 -44.07360457 81.00453079 -34 80 C-30.37262429 79.19179214 -30.37262429 79.19179214 -28 77 C-26.25610483 73.68815182 -26.25610483 73.68815182 -26 70 C-27.79097429 66.22739932 -29.58332423 64.24082561 -33.1875 62.1875 C-34.06664062 61.68476562 -34.94578125 61.18203125 -35.8515625 60.6640625 C-38.86219281 59.07283606 -41.90131113 57.56959622 -44.96459961 56.08374023 C-56.19604699 50.61636628 -64.32277231 45.59776513 -70 34 C-72.6103718 26.16888459 -71.89881511 16.7332835 -68.3671875 9.3046875 C-62.682249 -0.27849454 -55.19990061 -5.02416867 -45 -9 C-29.98448385 -12.16891875 -12.74426856 -8.49617904 0 0 Z " fill="#FFFFFF" transform="translate(184,607)"/>
<path d="M0 0 C0.78375 0.04125 1.5675 0.0825 2.375 0.125 C3.30142057 3.93361788 3.34512479 7.20200627 2.91796875 11.0546875 C-0.97250218 51.0667101 6.43409189 95.46710972 32.46655273 127.33325195 C34.70997641 129.98810607 37.02919776 132.55970749 39.375 135.125 C40.09171875 135.92421875 40.8084375 136.7234375 41.546875 137.546875 C67.54549792 165.10932487 106.44259163 175.69000539 143.2109375 177.0546875 C189.33283061 178.05831427 234.32224024 164.21450315 275.375 144.125 C276.33116211 143.65723145 277.28732422 143.18946289 278.27246094 142.70751953 C314.78886834 124.64770718 347.37103352 100.51992591 377.375 73.125 C378.30828125 72.28453125 379.2415625 71.4440625 380.203125 70.578125 C389.81981678 61.88977723 399.32618537 52.95276921 407.71875 43.05859375 C409.63485577 40.82163065 411.63012856 38.66696422 413.625 36.5 C417.11177623 32.63038517 420.41151094 28.65828202 423.625 24.5625 C424.07665527 23.98790039 424.52831055 23.41330078 424.99365234 22.82128906 C427.6551091 19.40774181 430.24273004 15.9495313 432.7890625 12.44921875 C433.36495117 11.66812744 433.94083984 10.88703613 434.53417969 10.08227539 C435.66060522 8.55115087 436.77376249 7.01015789 437.87207031 5.45874023 C441.73675759 0.23050891 441.73675759 0.23050891 445.2578125 -0.3515625 C445.95648437 -0.19429688 446.65515625 -0.03703125 447.375 0.125 C448.12890625 2.234375 448.12890625 2.234375 448.375 5.125 C447.11817665 7.44812579 445.90670913 9.30496977 444.3125 11.375 C443.86567871 11.97634766 443.41885742 12.57769531 442.95849609 13.19726562 C437.04119897 21.06022305 430.71376657 28.6015005 424.375 36.125 C423.56530762 37.09348877 423.56530762 37.09348877 422.73925781 38.08154297 C416.95781548 44.99382539 411.05774806 51.60605776 404.59765625 57.90234375 C402.61476451 59.88523549 400.80020391 61.91526883 399 64.0625 C394.7459447 69.02225139 389.85739005 73.28705229 385.00732422 77.64550781 C383.35626483 79.14198103 381.72448263 80.65692767 380.09765625 82.1796875 C373.40030274 88.44755739 366.57134558 94.42789308 359.375 100.125 C358.7665625 100.61661621 358.158125 101.10823242 357.53125 101.61474609 C340.23379285 115.5886928 321.7415136 128.18300973 302.375 139.125 C301.12493164 139.8370459 301.12493164 139.8370459 299.84960938 140.56347656 C239.38993908 174.79839205 165.18347793 197.60154364 96.05859375 178.484375 C73.78720791 172.00268572 54.53986988 160.59657866 37.375 145.125 C36.64796875 144.48175781 35.9209375 143.83851563 35.171875 143.17578125 C9.94377104 119.53725295 -4.23306102 81.03174321 -5.71913147 46.9672699 C-5.75528851 44.81219477 -5.76377683 42.65927084 -5.7578125 40.50390625 C-5.75876923 39.71910385 -5.75972595 38.93430145 -5.76071167 38.12571716 C-5.76138673 36.47956257 -5.75957995 34.83340521 -5.75537109 33.18725586 C-5.7500205 30.69704071 -5.75533549 28.20700648 -5.76171875 25.71679688 C-5.77249774 6.97143413 -5.77249774 6.97143413 -4.625 2.125 C-2.625 0.125 -2.625 0.125 0 0 Z " fill="#FF9806" transform="translate(378.625,335.875)"/>
<path d="M0 0 C0.82371094 0.66902344 1.64742187 1.33804688 2.49609375 2.02734375 C8.4474076 7.07100488 13.2557958 12.82661486 18 19 C18.69222656 19.89976563 19.38445312 20.79953125 20.09765625 21.7265625 C33.3722957 39.47723645 41.40808566 59.40198429 46 81 C46.16371094 81.74604492 46.32742188 82.49208984 46.49609375 83.26074219 C49.15943997 96.01068679 49.26029832 108.78134576 49.25 121.75 C49.24940582 122.58496002 49.24881165 123.41992004 49.24819946 124.28018188 C49.2416191 126.70255794 49.22507227 129.12459271 49.203125 131.546875 C49.1987291 132.26499863 49.19433319 132.98312225 49.18980408 133.7230072 C48.99483179 148.00516821 48.99483179 148.00516821 46 151 C43.375 150.625 43.375 150.625 41 150 C40.0866905 146.99870233 39.9989583 144.77261211 40.421875 141.67578125 C45.03529976 100.99579231 37.03125727 56.55075024 11.3515625 23.85546875 C10.57554687 22.91316406 9.79953125 21.97085938 9 21 C8.20335937 20.02675781 7.40671875 19.05351563 6.5859375 18.05078125 C-15.66494841 -7.66210051 -47.02454692 -20.10650949 -80 -25 C-80.69222656 -25.103125 -81.38445312 -25.20625 -82.09765625 -25.3125 C-160.260221 -35.46348243 -241.78441071 3.90276259 -301.98828125 50.25195312 C-308.48598179 55.31597542 -314.78071426 60.59949978 -321 66 C-321.73476563 66.63421875 -322.46953125 67.2684375 -323.2265625 67.921875 C-325.16187143 69.60274092 -327.08134366 71.30015774 -329 73 C-329.69754395 73.61270752 -330.39508789 74.22541504 -331.11376953 74.85668945 C-337.65357344 80.66033742 -343.88300982 86.72857745 -350.05102539 92.9206543 C-351.69239796 94.56741404 -353.33908819 96.20872095 -354.98632812 97.84960938 C-360.53350609 103.39260993 -365.95576777 108.98939063 -371 115 C-371.80812134 115.94806519 -371.80812134 115.94806519 -372.63256836 116.9152832 C-374.30964134 118.89143626 -375.97038958 120.88000849 -377.625 122.875 C-378.22111084 123.59171875 -378.81722168 124.3084375 -379.43139648 125.046875 C-384.5214121 131.24633035 -389.19311063 137.70518914 -393.64892578 144.37451172 C-397.35068886 149.73399487 -397.35068886 149.73399487 -400.74609375 151.125 C-403 151 -403 151 -405 149 C-404.92459659 143.81601539 -401.54182867 140.2754691 -398.5 136.375 C-397.95537109 135.66424316 -397.41074219 134.95348633 -396.84960938 134.22119141 C-392.35294726 128.38107883 -387.75154362 122.63499646 -383 117 C-382.32783447 116.20045898 -382.32783447 116.20045898 -381.64208984 115.38476562 C-371.32688554 103.13916945 -360.54929193 91.47013084 -349.25 80.125 C-348.45779053 79.32811768 -347.66558105 78.53123535 -346.84936523 77.71020508 C-342.060478 72.93434337 -337.1386814 68.39528187 -332 64 C-330.92879367 63.06221794 -329.85843486 62.12346659 -328.7890625 61.18359375 C-312.73709797 47.19869824 -295.79356508 34.68139292 -278 23 C-277.15630859 22.4445752 -276.31261719 21.88915039 -275.44335938 21.31689453 C-204.54236111 -24.96338453 -103.70477061 -57.52585469 0 0 Z " fill="#FF9806" transform="translate(845,34)"/>
<path d="M0 0 C21.97410587 -3.51968903 21.97410587 -3.51968903 31 0 C38.40417795 5.86987234 42.48695464 14.51578527 46.49316406 22.90234375 C48.39412506 26.8102169 50.61874997 30.36971693 53 34 C58.14721307 26.76404827 63.05353144 19.3936248 67.875 11.9375 C69.20464003 9.88340916 70.53531081 7.82998504 71.8671875 5.77734375 C72.44581543 4.88265381 73.02444336 3.98796387 73.62060547 3.06616211 C75 1 75 1 76 0 C78.29151417 -0.08790975 80.58572524 -0.10694038 82.87890625 -0.09765625 C83.90889992 -0.09553383 83.90889992 -0.09553383 84.95970154 -0.09336853 C87.16067801 -0.08775479 89.36155409 -0.07520007 91.5625 -0.0625 C93.05143083 -0.05748676 94.54036324 -0.05292355 96.02929688 -0.04882812 C99.68623075 -0.03778093 103.34310558 -0.02050713 107 0 C105.73728999 3.40192271 104.29364837 6.29531126 102.25366211 9.29272461 C101.70226059 10.10805161 101.15085907 10.9233786 100.58274841 11.76341248 C99.98696487 12.6342598 99.39118134 13.50510712 98.77734375 14.40234375 C98.1578334 15.31649551 97.53832306 16.23064728 96.90003967 17.17250061 C94.91697282 20.09721501 92.9275898 23.0175608 90.9375 25.9375 C89.62517879 27.86751751 88.31332503 29.79785296 87.00195312 31.72851562 C86.36247238 32.66878601 85.72299164 33.6090564 85.06413269 34.57781982 C83.78974517 36.46063124 82.52240212 38.34823002 81.26216125 40.24053955 C78.66122334 44.14040181 76.08767874 47.97821346 73.09643555 51.59082031 C64.48555664 62.36435205 65.77084037 74.69306157 65.9375 87.875 C65.93441994 90.220061 65.92729141 92.56512034 65.91601562 94.91015625 C65.88983589 100.60928277 65.94669853 106.29887502 66 112 C57.42 112 48.84 112 40 112 C40.1134375 108.596875 40.226875 105.19375 40.34375 101.6875 C41.5952389 68.21593488 41.5952389 68.21593488 25.64355469 40.13085938 C20.50815819 34.25500127 16.38657663 27.52315381 12.07305908 21.0383606 C10.52286533 18.72167113 8.94989232 16.42229335 7.36865234 14.12670898 C6.40191481 12.71344964 5.43527597 11.30012278 4.46875 9.88671875 C4.0163797 9.23483582 3.5640094 8.58295288 3.09793091 7.91131592 C0 3.33998349 0 3.33998349 0 0 Z " fill="#FFFFFF" transform="translate(782,599)"/>
<path d="M0 0 C0.63164063 0.4125 1.26328125 0.825 1.9140625 1.25 C2.60757813 1.6625 3.30109375 2.075 4.015625 2.5 C11.39382138 7.3635302 15.60666756 14.82800848 17.9140625 23.25 C18.95842211 34.07005134 18.06575123 44.22585192 11.2890625 53.0625 C5.33862753 59.34519277 -2.99369816 63.76340824 -11.6015625 64.5859375 C-23.96885835 64.71530252 -31.82908561 62.57211477 -40.8125 53.84375 C-48.20166171 45.41350365 -50.156345 37.09447669 -49.5390625 26.1796875 C-48.95761258 21.13711319 -47.85556766 17.47778436 -45.0859375 13.25 C-44.66183594 12.55648437 -44.23773437 11.86296875 -43.80078125 11.1484375 C-34.74261885 -2.32526368 -14.6089791 -8.12236676 0 0 Z M-26.0859375 22.25 C-28.09700864 25.75315619 -29.06426845 28.20988564 -29.1484375 32.25 C-27.6954557 36.35253686 -25.30923924 39.33940663 -22.0859375 42.25 C-18.46663052 43.45643566 -15.89362745 43.57268559 -12.0859375 43.25 C-7.21523073 40.81464662 -4.93023873 38.37305898 -3.0859375 33.25 C-2.50937981 29.29646156 -2.89086935 27.61846207 -4.7734375 24.0625 C-8.29593788 19.77837792 -10.46860471 18.42970364 -16.0234375 17.8125 C-20.33123508 18.00757008 -22.85502806 19.31964027 -26.0859375 22.25 Z " fill="#FFFFFF" transform="translate(787.0859375,168.75)"/>
<path d="M0 0 C7.82870076 8.91059415 11.91857959 19.65662293 12.34765625 31.50390625 C11.9619593 36.20940903 11.09017248 40.71954983 10.03515625 45.31640625 C5.64752995 45.31640625 4.11621176 44.54751968 0.328125 42.4921875 C-0.80415527 41.88221924 -1.93643555 41.27225098 -3.10302734 40.64379883 C-4.32796908 39.97247735 -5.55273705 39.30083871 -6.77734375 38.62890625 C-8.04351302 37.94180451 -9.30995505 37.25520519 -10.57666016 36.5690918 C-19.30833677 31.82637201 -27.97528407 26.9701851 -36.60888672 22.05126953 C-46.6508617 16.33255232 -56.80148766 10.81574619 -66.96484375 5.31640625 C-66.96484375 2.31640625 -66.96484375 2.31640625 -64.77734375 -0.12109375 C-45.83918439 -17.37586116 -19.1076422 -18.2753674 0 0 Z " fill="#FFFFFF" transform="translate(558.96484375,161.68359375)"/>
<path d="M0 0 C3.00289866 1.69169145 5.08092097 4.12370302 7.31640625 6.69140625 C8.04923828 7.5122168 8.04923828 7.5122168 8.796875 8.34960938 C10.20846337 9.93484552 11.60827247 11.52962226 13.00390625 13.12890625 C13.93783203 14.19431641 13.93783203 14.19431641 14.890625 15.28125 C15.97235318 16.52012997 17.05175765 17.76104248 18.12890625 19.00390625 C20.54942683 21.7471629 23.02694857 24.43677851 25.50390625 27.12890625 C26.4466856 28.16009133 27.38939521 29.19134017 28.33203125 30.22265625 C29.97304474 32.00761829 31.62660682 33.78125923 33.30078125 35.53515625 C33.9453125 36.22609375 34.58984375 36.91703125 35.25390625 37.62890625 C35.8159375 38.21671875 36.37796875 38.80453125 36.95703125 39.41015625 C38.00390625 41.12890625 38.00390625 41.12890625 37.7355957 43.06323242 C36.51223488 46.51697147 33.62458711 48.57691594 30.94140625 50.94140625 C30.347229 51.47693115 29.75305176 52.01245605 29.14086914 52.56420898 C25.49193132 55.8435335 21.80475232 59.08018312 18.09375 62.2890625 C15.36019512 64.69561269 12.68299151 67.1621774 10.00390625 69.62890625 C1.68681384 77.27480827 1.68681384 77.27480827 -1.953125 80.359375 C-3.51336184 81.71078473 -5.02307077 83.12074564 -6.5078125 84.5546875 C-11.2436371 88.89867497 -14.65947603 91.72734117 -21.24609375 91.94140625 C-27.84293744 91.39451765 -31.46031279 89.33958709 -36.43359375 85.00390625 C-38.76033425 80.72270374 -38.98609466 76.88402875 -37.99609375 72.12890625 C-35.284324 68.46435253 -33.86233529 67.44420733 -29.4296875 66.6953125 C-23.30656676 66.41427914 -17.84629825 67.16885693 -12.99609375 71.12890625 C-11.27426544 73.40679242 -10.20407737 75.51160841 -8.99609375 78.12890625 C-3.46590239 74.15294574 1.58421561 69.89633063 6.50390625 65.19140625 C7.8089319 63.95601219 9.11491241 62.72162597 10.421875 61.48828125 C11.03853027 60.90626953 11.65518555 60.32425781 12.29052734 59.72460938 C14.98278361 57.21725871 17.76470798 54.82130392 20.5859375 52.4609375 C22.26202855 50.98725883 22.26202855 50.98725883 24.00390625 48.12890625 C23.29105469 47.35546875 22.57820312 46.58203125 21.84375 45.78515625 C13.14796932 36.33427977 13.14796932 36.33427977 9.50390625 32.12890625 C6.47686103 28.63898761 3.37447719 25.22251963 0.25390625 21.81640625 C-0.45475586 21.04200195 -0.45475586 21.04200195 -1.17773438 20.25195312 C-3.40397774 17.82824612 -5.64141225 15.42864518 -7.99609375 13.12890625 C-8.76953125 13.84175781 -9.54296875 14.55460937 -10.33984375 15.2890625 C-15.46800011 20.00749503 -20.60843506 24.6980895 -25.87890625 29.2578125 C-28.05627068 31.18208845 -30.18890457 33.15095836 -32.31884766 35.12744141 C-49.99827716 51.51664517 -49.99827716 51.51664517 -60.16796875 51.41015625 C-65.51868083 50.87804124 -68.62602205 48.53503247 -72.37109375 44.69140625 C-74.81846692 40.83208702 -75.28661886 38.55247928 -74.37109375 34.06640625 C-72.64729382 30.38374277 -71.61401635 29.04862028 -67.99609375 27.12890625 C-61.80066983 26.17725806 -56.14715512 26.65027381 -50.65625 29.7734375 C-47.79412734 32.11027647 -46.53296324 34.79902236 -44.99609375 38.12890625 C-39.26110435 34.02499512 -34.08006817 29.5718231 -28.99609375 24.69140625 C-24.36834466 20.27606361 -19.69237467 15.95733456 -14.85742188 11.76928711 C-13.17968402 10.29070361 -11.55585305 8.77766417 -9.94921875 7.22265625 C-9.0571875 6.36671875 -8.16515625 5.51078125 -7.24609375 4.62890625 C-6.34375 3.75234375 -5.44140625 2.87578125 -4.51171875 1.97265625 C-1.99609375 0.12890625 -1.99609375 0.12890625 0 0 Z " fill="#FF9806" transform="translate(640.99609375,80.87109375)"/>
<path d="M0 0 C6.14116739 1.62258269 11.22231217 4.89751775 16.625 8.125 C18.77662823 9.39574355 20.9290032 10.66522337 23.08203125 11.93359375 C24.20947754 12.59858887 25.33692383 13.26358398 26.49853516 13.94873047 C32.40389119 17.41829523 38.36071201 20.79846517 44.3125 24.1875 C55.23492513 30.41279203 66.13091709 36.68201092 77 43 C72.1752377 51.48986362 64.28850416 56.95517147 55 60 C49.89504973 59.62883345 46.3630072 58.42991963 41.96484375 55.859375 C40.8353833 55.20678711 39.70592285 54.55419922 38.54223633 53.88183594 C37.34033479 53.17177 36.13876253 52.46114645 34.9375 51.75 C33.69797449 51.02557143 32.4579789 50.30194665 31.2175293 49.57910156 C28.69914509 48.1093757 26.18486118 46.63293477 23.67285156 45.15234375 C20.23547208 43.13080766 16.77318223 41.15523374 13.3046875 39.1875 C11.30700603 38.04216473 9.30959411 36.89635912 7.3125 35.75 C6.38107178 35.22631836 5.44964355 34.70263672 4.48999023 34.16308594 C3.64380127 33.67098633 2.7976123 33.17888672 1.92578125 32.671875 C1.18755127 32.2500293 0.44932129 31.82818359 -0.3112793 31.39355469 C-2.41068037 29.66110112 -2.65817505 28.66717112 -3 26 C-3.23719638 23.08607835 -3.23089751 20.17268068 -3.25 17.25 C-3.270625 16.4765625 -3.29125 15.703125 -3.3125 14.90625 C-3.35026935 9.27861722 -2.24005286 5.16391133 0 0 Z " fill="#FFFFFF" transform="translate(485,176)"/>
<path d="M0 0 C1.32 0 2.64 0 4 0 C4.144375 1.27875 4.28875 2.5575 4.4375 3.875 C5.64568174 9.46940675 8.84722587 12.42503508 12.73828125 16.44140625 C19.94613952 24.59537372 21.63886883 33.45123557 21 44 C20.51354193 46.46190082 19.84326984 48.62830358 19 51 C17.0625 51.5625 17.0625 51.5625 15 52 C13.15794784 50.15794784 13.55927745 46.98369566 13.3125 44.5 C12.1718773 36.14110826 9.38063283 31.01317274 3.125 25.4375 C2.42375 24.963125 1.7225 24.48875 1 24 C1.02562012 25.25538574 1.05124023 26.51077148 1.07763672 27.80419922 C1.07428041 33.31055303 0.45250413 38.67655247 -0.2421875 44.1328125 C-0.37062042 45.16888641 -0.49905334 46.20496033 -0.63137817 47.27243042 C-0.90273504 49.44937661 -1.17685705 51.62597974 -1.45361328 53.80224609 C-1.8745043 57.1210913 -2.28352633 60.44125227 -2.69140625 63.76171875 C-2.95762291 65.88550584 -3.22452663 68.00920694 -3.4921875 70.1328125 C-3.67356766 71.61118088 -3.67356766 71.61118088 -3.85861206 73.11941528 C-5.74212351 87.74212351 -5.74212351 87.74212351 -11 93 C-17.40832027 97.43652942 -23.32117206 98.74785107 -31 98 C-35.14582241 96.43553871 -38.37016614 94.6038464 -41 91 C-42.46372007 85.51104972 -42.32004184 81.86937705 -39.50390625 76.89453125 C-35.55901479 71.92499266 -30.22967915 68.91288374 -24 68 C-18.29029172 67.57705865 -15.06673579 68.70243485 -10 71 C-9.88946793 70.12525528 -9.77893585 69.25051056 -9.66505432 68.34925842 C-8.62478392 60.12269734 -7.58043421 51.89666681 -6.53144932 43.6712122 C-5.99224686 39.4419809 -5.45464779 35.21255842 -4.9206543 30.98266602 C-4.4056723 26.90383538 -3.88655545 22.8255508 -3.3645153 18.74761772 C-3.16566227 17.18841884 -2.96832317 15.62902613 -2.77249336 14.06944466 C-2.49884934 11.8922059 -2.21992563 9.71570627 -1.93969727 7.53930664 C-1.78203384 6.29798477 -1.62437042 5.0566629 -1.46192932 3.77772522 C-1 1 -1 1 0 0 Z " fill="#FF9806" transform="translate(403,211)"/>
<path d="M0 0 C0.33 0 0.66 0 1 0 C1.15855469 0.83402344 1.31710937 1.66804688 1.48046875 2.52734375 C3.53201591 12.42237507 6.23790334 20.20816542 14 27 C14.7425 27.680625 15.485 28.36125 16.25 29.0625 C22.92594043 33.76600349 30.00837899 35.73201838 38 37 C38 37.33 38 37.66 38 38 C36.94941406 38.21914063 35.89882813 38.43828125 34.81640625 38.6640625 C22.51725807 41.37799345 13.49465671 45.36305232 6 56 C2.53608817 61.98607263 1.07630198 68.21646512 0 75 C-0.33 75 -0.66 75 -1 75 C-1.20302734 73.56720703 -1.20302734 73.56720703 -1.41015625 72.10546875 C-3.18159626 61.46622128 -6.11064015 52.59498036 -14.875 45.5625 C-22.12107328 40.72713956 -29.43837352 38.3584209 -38 37 C-38 36.67 -38 36.34 -38 36 C-37.09378906 35.84144531 -36.18757813 35.68289063 -35.25390625 35.51953125 C-27.58844503 34.0513318 -21.57021338 32.16480053 -15 28 C-14.30132813 27.70222656 -13.60265625 27.40445312 -12.8828125 27.09765625 C-10.51497842 25.71723845 -10.06779995 24.4869107 -9 22 C-8.1965896 20.78560409 -7.38372681 19.57741932 -6.5625 18.375 C-3.68762162 13.84643052 -2.3009768 9.16874568 -1 4 C-0.71382812 2.86304688 -0.71382812 2.86304688 -0.421875 1.703125 C-0.28265625 1.14109375 -0.1434375 0.5790625 0 0 Z " fill="#FF9806" transform="translate(545,373)"/>
<path d="M0 0 C4.98173032 2.81823601 8.65343454 6.72921888 10.55078125 12.16015625 C11.48120397 18.26128886 11.61711743 24.15326679 8.55078125 29.66015625 C4.76913689 34.6987979 -0.21171553 38.0192667 -6.44921875 39.09765625 C-12.96407371 39.51838074 -18.75061151 37.78867471 -23.90625 33.765625 C-27.91885089 29.59048838 -29.64356064 24.3065609 -29.94921875 18.59765625 C-29.63499898 12.38910696 -26.95845666 7.94028301 -23.01171875 3.28515625 C-16.69122091 -1.95623221 -7.69570721 -2.63887887 0 0 Z M-15.44921875 14.16015625 C-16.7858202 17.51608488 -16.7858202 17.51608488 -16.44921875 21.16015625 C-14.55272324 24.30674291 -14.55272324 24.30674291 -11.44921875 26.16015625 C-8.215007 26.16015625 -6.33544256 25.69189053 -3.57421875 24.03515625 C-1.77453804 21.03568839 -2.08427589 18.56628957 -2.44921875 15.16015625 C-3.98311996 12.73820698 -5.14330249 12.27286224 -7.82421875 11.28515625 C-11.38711758 11.1154944 -12.78742191 11.79411461 -15.44921875 14.16015625 Z " fill="#FFFFFF" transform="translate(780.44921875,92.83984375)"/>
<path d="M0 0 C1.53933564 2.84484814 2.42662956 5.48960099 3.1875 8.625 C5.1427278 15.20079101 8.32269004 21.51714474 14.140625 25.4453125 C18.65226902 27.57493468 23.34623861 28.67349199 28.25 29.5078125 C28.8275 29.67023438 29.405 29.83265625 30 30 C30.495 30.99 30.495 30.99 31 32 C30.32195313 32.07476562 29.64390625 32.14953125 28.9453125 32.2265625 C20.76132819 33.38274865 13.90200712 35.76233636 8.18359375 41.97265625 C4.00670626 47.74073897 1.95302948 54.21035044 0 61 C-0.33 61 -0.66 61 -1 61 C-1.07476563 60.33355469 -1.14953125 59.66710937 -1.2265625 58.98046875 C-2.29028361 51.52399234 -4.13071289 44.89193122 -9 39 C-15.36764063 34.47109485 -22.36336575 32.27277237 -30 31 C-27.17970408 29.11980272 -25.39621804 28.46291408 -22.1875 27.625 C-14.12953707 25.25432395 -8.8582635 20.7646707 -4 14 C-1.70122941 9.53620547 -0.62216368 4.97730941 0 0 Z " fill="#FF9807" transform="translate(622,313)"/>
<path d="M0 0 C18.06293563 8.79239955 35.66251002 18.48916451 53.1796875 28.31640625 C56.97821258 30.44374438 60.80281692 32.5197371 64.6328125 34.58984375 C66.94277838 35.85143425 69.25267454 37.11315242 71.5625 38.375 C72.67681396 38.97046631 73.79112793 39.56593262 74.93920898 40.17944336 C75.97118408 40.74671143 77.00315918 41.31397949 78.06640625 41.8984375 C78.99396729 42.40036621 79.92152832 42.90229492 80.87719727 43.41943359 C83 45 83 45 83.89819336 46.99072266 C84.05815894 50.14783717 82.52619028 52.3139051 81 55 C76.65439694 54.05408722 73.08932353 51.98583739 69.25 49.8125 C68.46560547 49.37252686 67.68121094 48.93255371 66.87304688 48.47924805 C58.32173964 43.65958644 49.85552954 38.69309679 41.38671875 33.73046875 C34.71622414 29.82546081 28.01435522 25.97584301 21.3125 22.125 C12.78600606 17.2207907 4.30957262 12.26497212 -4 7 C-2.68 4.69 -1.36 2.38 0 0 Z " fill="#FFFFFF" transform="translate(486,165)"/>
<path d="M0 0 C1.98 0 3.96 0 6 0 C6.60544214 2.24966317 7.20935498 4.49972077 7.8125 6.75 C8.14894531 8.00296875 8.48539063 9.2559375 8.83203125 10.546875 C10.28235045 16.01575994 11.6375123 21.50870949 13 27 C13.20681396 26.21761963 13.41362793 25.43523926 13.62670898 24.62915039 C14.56011974 21.10599004 15.49873732 17.58423789 16.4375 14.0625 C16.76298828 12.83080078 17.08847656 11.59910156 17.42382812 10.33007812 C17.73642578 9.16025391 18.04902344 7.99042969 18.37109375 6.78515625 C18.65911865 5.70113525 18.94714355 4.61711426 19.24389648 3.50024414 C20 1 20 1 21 0 C23.31 0 25.62 0 28 0 C30.31 8.25 32.62 16.5 35 25 C36.6135211 21.77295781 37.4941632 19.44624304 38.2890625 16.015625 C38.61777344 14.61376953 38.61777344 14.61376953 38.953125 13.18359375 C39.28570313 11.73146484 39.28570313 11.73146484 39.625 10.25 C39.85445312 9.26644531 40.08390625 8.28289063 40.3203125 7.26953125 C40.88470207 4.84735936 41.44442625 2.42420639 42 0 C44.31 0 46.62 0 49 0 C46.03 12.21 43.06 24.42 40 37 C37.36 37 34.72 37 32 37 C29.36 28.42 26.72 19.84 24 11 C21.73768394 19.18148921 21.73768394 19.18148921 19.48266602 27.36499023 C19.20092529 28.37762939 18.91918457 29.39026855 18.62890625 30.43359375 C18.34088135 31.47572021 18.05285645 32.51784668 17.75610352 33.59155273 C17 36 17 36 16 37 C13.66702567 37.04092937 11.33294775 37.04241723 9 37 C0 5.92576419 0 5.92576419 0 0 Z " fill="#FF9806" transform="translate(855,746)"/>
<path d="M0 0 C1.98 0 3.96 0 6 0 C6.176521 0.7520874 6.35304199 1.5041748 6.53491211 2.27905273 C7.3320621 5.66608826 8.13470475 9.05179829 8.9375 12.4375 C9.21529297 13.62150391 9.49308594 14.80550781 9.77929688 16.02539062 C10.18051758 17.71245117 10.18051758 17.71245117 10.58984375 19.43359375 C10.83597412 20.47572021 11.08210449 21.51784668 11.33569336 22.59155273 C11.76823459 24.93278013 11.76823459 24.93278013 13 26 C13.20681396 25.2479126 13.41362793 24.4958252 13.62670898 23.72094727 C14.56018954 20.33383628 15.49877368 16.9481607 16.4375 13.5625 C16.76298828 12.37849609 17.08847656 11.19449219 17.42382812 9.97460938 C17.73642578 8.84990234 18.04902344 7.72519531 18.37109375 6.56640625 C18.65911865 5.52427979 18.94714355 4.48215332 19.24389648 3.40844727 C20 1 20 1 21 0 C22.99958364 -0.04080783 25.00045254 -0.04254356 27 0 C29.25374117 5.76323254 31.07763927 11.52746533 32.6875 17.5 C32.91244141 18.32242188 33.13738281 19.14484375 33.36914062 19.9921875 C33.91611425 21.99387823 34.45853969 23.99681088 35 26 C36.91037314 20.62595966 38.26758379 15.15726025 39.625 9.625 C39.85445312 8.69816406 40.08390625 7.77132812 40.3203125 6.81640625 C40.88236114 4.54479302 41.44219469 2.27265822 42 0 C43.98 0 45.96 0 48 0 C47.30335926 7.67272368 45.393059 14.98310501 43.5 22.4375 C43.17543122 23.74144938 42.85120968 25.04548525 42.52734375 26.34960938 C40.13127309 35.86872691 40.13127309 35.86872691 39 37 C36.66702567 37.04092937 34.33294775 37.04241723 32 37 C31.01149308 33.98214387 30.03592807 30.96025033 29.0625 27.9375 C28.78470703 27.08994141 28.50691406 26.24238281 28.22070312 25.36914062 C26.68133159 20.56555956 25.53787349 16.01788303 25 11 C24.34 11 23.68 11 23 11 C22.8865625 11.96164062 22.773125 12.92328125 22.65625 13.9140625 C21.99844213 18.5117689 20.76556462 22.91298074 19.5 27.375 C19.27441406 28.19355469 19.04882812 29.01210938 18.81640625 29.85546875 C17.13103039 35.86896961 17.13103039 35.86896961 16 37 C13.66702567 37.04092937 11.33294775 37.04241723 9 37 C6.55079683 29.97600892 4.60471961 22.90505603 2.8125 15.6875 C2.53986328 14.61693359 2.26722656 13.54636719 1.98632812 12.44335938 C1.72916016 11.41404297 1.47199219 10.38472656 1.20703125 9.32421875 C0.9747583 8.39697998 0.74248535 7.46974121 0.50317383 6.5144043 C0 4 0 4 0 0 Z " fill="#FF9806" transform="translate(0,746)"/>
<path d="M0 0 C3.23120296 0.65406544 5.71994243 1.81984478 8.578125 3.44921875 C9.48071045 3.9611377 10.3832959 4.47305664 11.31323242 5.00048828 C12.28236572 5.55720215 13.25149902 6.11391602 14.25 6.6875 C15.25329346 7.25968262 16.25658691 7.83186523 17.2902832 8.42138672 C20.53097164 10.27385432 23.76624657 12.13545486 27 14 C28.10972168 14.63921387 29.21944336 15.27842773 30.36279297 15.93701172 C33.64050742 17.82820283 36.91488925 19.72499252 40.1875 21.625 C41.20811523 22.21627686 42.22873047 22.80755371 43.28027344 23.41674805 C44.23321289 23.97273682 45.18615234 24.52872559 46.16796875 25.1015625 C47.00610107 25.58963379 47.8442334 26.07770508 48.70776367 26.58056641 C50.9091279 27.94372879 52.95616105 29.41253515 55 31 C53.58707905 35.8274799 51.57025846 39.7162359 49 44 C45.61195387 42.75014152 42.80545503 41.33889855 39.875 39.234375 C39.09600342 38.68064209 38.31700684 38.12690918 37.5144043 37.55639648 C36.68465088 36.96028564 35.85489746 36.3641748 35 35.75 C26.78566232 29.91813293 18.47481718 24.25902823 10.06835938 18.70800781 C5.3091611 15.56067583 0.62029391 12.34831016 -4 9 C-3.23596585 5.52846619 -1.91813089 3.00229182 0 0 Z " fill="#FFFFFF" transform="translate(481,207)"/>
<path d="M0 0 C3.10702729 2.73878702 5.5122828 5.7731176 6 10 C2.75 10.3125 2.75 10.3125 -1 10 C-3.3125 7.5625 -3.3125 7.5625 -5 5 C-8.48697902 3.25651049 -12.19590063 3.41917275 -16 4 C-19.57623788 5.9137306 -21.69762236 8.09286708 -23 12 C-23.53029448 17.05083759 -23.54762715 20.90474571 -21.25 25.5 C-18.00673991 29.10362232 -16.45226973 29.86553058 -11.625 30.3125 C-7.55019522 29.96122373 -5.34518051 29.35683172 -2 27 C-0.63889902 24.69738555 0.13150563 22.55723341 1 20 C-3.62 20 -8.24 20 -13 20 C-13 18.35 -13 16.7 -13 15 C-6.4 15 0.2 15 7 15 C6.57067242 22.94256019 5.63426798 27.33214359 -0.11328125 33.1328125 C-3.9920692 35.64169023 -6.91771809 35.59424393 -11.4375 35.5 C-12.54448242 35.52320313 -12.54448242 35.52320313 -13.67382812 35.546875 C-18.87723721 35.50987298 -21.89634464 34.43504784 -26 31 C-30.20773495 26.04972359 -30.61664208 20.18553539 -30.38671875 13.90625 C-29.64277768 8.31542011 -27.58008424 4.58008424 -23.625 0.625 C-16.01013002 -4.08896713 -7.8146502 -4.40700399 0 0 Z " fill="#FF9706" transform="translate(1115,748)"/>
<path d="M0 0 C5.0428125 -0.1546875 5.0428125 -0.1546875 10.1875 -0.3125 C11.76374146 -0.38078003 11.76374146 -0.38078003 13.37182617 -0.45043945 C17.97568691 -0.51886389 20.30006965 -0.49585636 24.1484375 2.23046875 C26.04798498 5.071775 26.61604788 6.27290757 26.4375 9.625 C26.41558594 10.38039063 26.39367187 11.13578125 26.37109375 11.9140625 C26 14 26 14 24 17 C23.34 17 22.68 17 22 17 C22 17.66 22 18.32 22 19 C22.639375 19.28875 23.27875 19.5775 23.9375 19.875 C26 21 26 21 27 23 C27.2734375 24.98828125 27.2734375 24.98828125 27.375 27.3125 C27.42398438 28.07175781 27.47296875 28.83101562 27.5234375 29.61328125 C26.67513976 33.48126571 25.23748382 34.73574751 22 37 C18.20402223 37.60506357 14.51874074 37.47060759 10.6875 37.3125 C7.160625 37.209375 3.63375 37.10625 0 37 C0 24.79 0 12.58 0 0 Z M6 5 C6 8.63 6 12.26 6 16 C7.753125 16.061875 9.50625 16.12375 11.3125 16.1875 C12.29863281 16.22230469 13.28476562 16.25710938 14.30078125 16.29296875 C17.00732083 16.22352978 17.00732083 16.22352978 18.8359375 14.6796875 C20.61641972 12.1105353 20.32276119 10.0339552 20 7 C18.1371051 4.69939466 18.1371051 4.69939466 15.1796875 4.8046875 C14.08914063 4.82789063 12.99859375 4.85109375 11.875 4.875 C10.23144531 4.90207031 10.23144531 4.90207031 8.5546875 4.9296875 C7.71164062 4.95289063 6.86859375 4.97609375 6 5 Z M6 21 C6 24.96 6 28.92 6 33 C7.7325 33.061875 9.465 33.12375 11.25 33.1875 C12.22453125 33.22230469 13.1990625 33.25710938 14.203125 33.29296875 C17.42027204 32.95597709 18.73357995 32.2770356 21 30 C21.45137977 26.90482445 21.65549806 24.96304338 19.859375 22.32421875 C17.16447391 20.40495096 15.0766302 20.70720548 11.8125 20.8125 C8.9353125 20.9053125 8.9353125 20.9053125 6 21 Z " fill="#FF9806" transform="translate(974,746)"/>
<path d="M0 0 C6 0 6 0 7.91870117 1.84838867 C8.45470947 2.6963501 8.99071777 3.54431152 9.54296875 4.41796875 C10.14173828 5.34287109 10.74050781 6.26777344 11.35742188 7.22070312 C11.96134766 8.19974609 12.56527344 9.17878906 13.1875 10.1875 C13.80302734 11.14720703 14.41855469 12.10691406 15.05273438 13.09570312 C17.77429909 17.35644095 20.39862035 21.66436724 23 26 C23.33 17.42 23.66 8.84 24 0 C25.98 0 27.96 0 30 0 C30 12.21 30 24.42 30 37 C23 37 23 37 21.18310547 35.47460938 C20.74885254 34.77142578 20.31459961 34.06824219 19.8671875 33.34375 C19.37089844 32.56773437 18.87460938 31.79171875 18.36328125 30.9921875 C17.87214844 30.16976562 17.38101562 29.34734375 16.875 28.5 C16.37613281 27.70851563 15.87726563 26.91703125 15.36328125 26.1015625 C14.41720291 24.59475366 13.48082238 23.08177356 12.55810547 21.56054688 C10.40408236 18.02068565 8.19616834 14.51386934 6 11 C5.67 19.58 5.34 28.16 5 37 C3.35 37 1.7 37 0 37 C0 24.79 0 12.58 0 0 Z " fill="#FF9806" transform="translate(1193,746)"/>
<path d="M0 0 C5.73901027 3.14021317 8.78545987 6.63082449 10.8125 12.76953125 C12.19332073 18.41147845 11.35763306 23.45619913 9.3125 28.8125 C7.0868278 32.13576397 4.66126048 34.57999301 1.3125 36.8125 C-5.08724455 37.9084604 -13.26547816 38.19144806 -19.32421875 35.75 C-24.05793583 31.97124103 -26.15264993 26.68451315 -26.96484375 20.8046875 C-27.28083697 14.35842572 -25.45057253 9.01634066 -21.4375 4 C-14.58014317 -1.45471566 -8.16202794 -2.62844968 0 0 Z M-18.6875 9.8125 C-20.98197301 13.77568065 -21.14735624 17.29058029 -20.6875 21.8125 C-19.27942354 26.15673591 -17.64647674 29.07654111 -14 31.875 C-9.59880767 33.12062047 -6.03956537 33.36680906 -1.6875 31.8125 C1.76632001 28.99188033 3.90576224 26.03271327 5.3125 21.8125 C5.70864654 16.56355833 5.17807317 13.25907906 2.3125 8.8125 C0.03842877 6.19387252 -1.59070443 5.00874937 -5.0234375 4.39453125 C-11.36419738 4.04226681 -14.46505866 5.06225349 -18.6875 9.8125 Z " fill="#FF9806" transform="translate(813.6875,746.1875)"/>
<path d="M0 0 C3.031875 -0.061875 6.06375 -0.12375 9.1875 -0.1875 C10.60712036 -0.22846802 10.60712036 -0.22846802 12.05541992 -0.27026367 C16.84936401 -0.3175874 20.15522761 -0.20273273 24 3 C26.8288298 7.2432447 26.65268001 11.01734529 26 16 C23.82662236 19.72579024 21.81270564 21.20578558 18 23 C18.5775 23.84304688 19.155 24.68609375 19.75 25.5546875 C20.50024193 26.66129435 21.25022874 27.76807419 22 28.875 C22.7425 29.96554687 23.485 31.05609375 24.25 32.1796875 C26 35 26 35 26 37 C22.7578125 37.40234375 22.7578125 37.40234375 19 37 C17.21040742 34.77384591 16.09832456 33.06952779 14.875 30.5625 C13.69338574 28.21657546 12.48593492 26.19393921 11 24 C9.35 23.67 7.7 23.34 6 23 C6 27.62 6 32.24 6 37 C4.02 37 2.04 37 0 37 C0 24.79 0 12.58 0 0 Z M6 5 C6 9.29 6 13.58 6 18 C7.5675 18.061875 9.135 18.12375 10.75 18.1875 C11.63171875 18.22230469 12.5134375 18.25710938 13.421875 18.29296875 C16.51205282 17.94181218 17.81735287 17.19268229 20 15 C20.61597535 10.40463228 20.61597535 10.40463228 18.828125 6.29296875 C16.26467627 4.47993129 14.41545627 4.7029839 11.3125 4.8125 C9.559375 4.874375 7.80625 4.93625 6 5 Z " fill="#FF9806" transform="translate(514,746)"/>
<path d="M0 0 C4.516875 -0.1546875 4.516875 -0.1546875 9.125 -0.3125 C10.06230957 -0.35802002 10.99961914 -0.40354004 11.96533203 -0.45043945 C16.1688299 -0.51982627 19.15003723 -0.38938301 22.55078125 2.2421875 C25.59069075 5.6651159 25.97338215 7.3775066 26.1640625 11.78515625 C25.91113249 15.1997114 25.02821224 17.25209954 23 20 C21.02686214 21.05201092 19.02832138 22.05877081 17 23 C17.6496875 23.92683594 18.299375 24.85367188 18.96875 25.80859375 C19.81262221 27.01814391 20.65636558 28.22778397 21.5 29.4375 C21.92925781 30.04916016 22.35851562 30.66082031 22.80078125 31.29101562 C26 35.88671875 26 35.88671875 26 37 C22.9375 37.625 22.9375 37.625 19 37 C16.19362715 33.95227908 14.11774659 30.54820338 12 27 C10.20180184 23.5739739 10.20180184 23.5739739 6 23 C6 27.62 6 32.24 6 37 C4.02 37 2.04 37 0 37 C0 24.79 0 12.58 0 0 Z M6 5 C6 9.29 6 13.58 6 18 C7.588125 18.04125 9.17625 18.0825 10.8125 18.125 C11.70582031 18.14820313 12.59914062 18.17140625 13.51953125 18.1953125 C16.25402714 18.18285827 16.25402714 18.18285827 19 16 C20.04621254 12.23363485 20.57481508 10.06751372 18.6875 6.5625 C14.48264763 4.11781839 10.81185103 4.74674468 6 5 Z " fill="#FF9806" transform="translate(196,746)"/>
<path d="M0 0 C1.65 0 3.3 0 5 0 C5 5.28 5 10.56 5 16 C10.94 16 16.88 16 23 16 C23 10.72 23 5.44 23 0 C24.98 0 26.96 0 29 0 C29 12.21 29 24.42 29 37 C27.02 37 25.04 37 23 37 C23 31.72 23 26.44 23 21 C17.06 21 11.12 21 5 21 C5 26.28 5 31.56 5 37 C3.35 37 1.7 37 0 37 C0 24.79 0 12.58 0 0 Z " fill="#FF9707" transform="translate(726,746)"/>
<path d="M0 0 C1.65 0 3.3 0 5 0 C5 5.28 5 10.56 5 16 C10.94 16 16.88 16 23 16 C23 10.72 23 5.44 23 0 C24.98 0 26.96 0 29 0 C29 12.21 29 24.42 29 37 C27.02 37 25.04 37 23 37 C23 31.72 23 26.44 23 21 C17.06 21 11.12 21 5 21 C5 26.28 5 31.56 5 37 C3.35 37 1.7 37 0 37 C0 24.79 0 12.58 0 0 Z " fill="#FF9806" transform="translate(80,746)"/>
<path d="M0 0 C2.97646116 2.00738078 4.22241888 3.55676417 5.6875 6.8125 C5.6875 7.8025 5.6875 8.7925 5.6875 9.8125 C3 10.125 3 10.125 -0.3125 9.8125 C-1.99961423 8.1665349 -3.6670622 6.50012851 -5.3125 4.8125 C-7.94125402 4.22761438 -7.94125402 4.22761438 -10.3125 4.8125 C-12.65834796 6.69006316 -12.65834796 6.69006316 -12.33203125 9.7734375 C-11.6113111 13.06018264 -11.6113111 13.06018264 -8.51171875 14.3515625 C-7.35285156 14.70992187 -6.19398438 15.06828125 -5 15.4375 C-0.41634843 16.88496892 2.67765296 17.96419557 5.6875 21.8125 C7.1115665 25.72673743 7.09860167 28.91199158 5.375 32.6875 C3.6875 34.8125 3.6875 34.8125 1.6875 36.8125 C-0.80601699 37.09283623 -3.12883002 37.22858386 -5.625 37.25 C-7.59919922 37.30994141 -7.59919922 37.30994141 -9.61328125 37.37109375 C-14.13941264 36.68763357 -15.53244449 35.3688729 -18.3125 31.8125 C-19.125 29 -19.125 29 -19.3125 26.8125 C-17.3325 26.8125 -15.3525 26.8125 -13.3125 26.8125 C-12.6525 28.4625 -11.9925 30.1125 -11.3125 31.8125 C-9.83343108 31.83939216 -8.35422517 31.85884621 -6.875 31.875 C-5.63943359 31.89240234 -5.63943359 31.89240234 -4.37890625 31.91015625 C-2.32086062 32.04517348 -2.32086062 32.04517348 -1.3125 30.8125 C-0.81207854 27.89711971 -0.81207854 27.89711971 -1.3125 24.8125 C-3.59601351 22.83345496 -5.95799124 21.94628754 -8.765625 20.88671875 C-9.64734375 20.55285156 -10.5290625 20.21898437 -11.4375 19.875 C-12.28570313 19.57722656 -13.13390625 19.27945313 -14.0078125 18.97265625 C-16.72235121 17.60618507 -17.81147973 16.44167563 -19.3125 13.8125 C-19.97332073 10.73417678 -19.91258572 7.90101459 -19.3125 4.8125 C-14.22982192 -1.78124454 -7.59065358 -2.7211777 0 0 Z " fill="#FF9906" transform="translate(687.3125,746.1875)"/>
<path d="M0 0 C3.9325382 3.06737979 4.29659672 4.65116994 5.125 9.4375 C2.4375 9.75 2.4375 9.75 -0.875 9.4375 C-2.56211423 7.7915349 -4.2295622 6.12512851 -5.875 4.4375 C-8.50375402 3.85261438 -8.50375402 3.85261438 -10.875 4.4375 C-13.16228734 6.27633881 -13.16228734 6.27633881 -13 9.0625 C-12.95875 9.84625 -12.9175 10.63 -12.875 11.4375 C-11.72 12.015 -10.565 12.5925 -9.375 13.1875 C-8.65054687 13.55230469 -7.92609375 13.91710937 -7.1796875 14.29296875 C-5.67229663 15.04155439 -4.15679558 15.77408012 -2.6328125 16.48828125 C-1.92898438 16.82214844 -1.22515625 17.15601563 -0.5 17.5 C0.14710937 17.80035156 0.79421875 18.10070312 1.4609375 18.41015625 C3.125 19.4375 3.125 19.4375 5.125 22.4375 C5.4609375 24.77734375 5.4609375 24.77734375 5.5 27.375 C5.52835938 28.22964844 5.55671875 29.08429687 5.5859375 29.96484375 C4.95140069 33.36875729 3.95191568 34.45187442 1.125 36.4375 C-2.37109375 36.96875 -2.37109375 36.96875 -6.3125 36.9375 C-7.61058594 36.9478125 -8.90867187 36.958125 -10.24609375 36.96875 C-14.36065313 36.36640331 -16.02418009 35.41692833 -18.875 32.4375 C-19.6875 29.1875 -19.6875 29.1875 -19.875 26.4375 C-17.895 26.4375 -15.915 26.4375 -13.875 26.4375 C-13.58625 27.076875 -13.2975 27.71625 -13 28.375 C-12.04676549 30.58956079 -12.04676549 30.58956079 -9.875 31.4375 C-6.33328022 31.60419318 -6.33328022 31.60419318 -2.875 31.4375 C-1.51881501 30.31215895 -1.51881501 30.31215895 -1.8125 27.375 C-1.833125 26.405625 -1.85375 25.43625 -1.875 24.4375 C-3.03 23.86 -4.185 23.2825 -5.375 22.6875 C-6.09945313 22.32269531 -6.82390625 21.95789063 -7.5703125 21.58203125 C-9.07770337 20.83344561 -10.59320442 20.10091988 -12.1171875 19.38671875 C-12.82101562 19.05285156 -13.52484375 18.71898437 -14.25 18.375 C-14.89710937 18.07464844 -15.54421875 17.77429688 -16.2109375 17.46484375 C-17.875 16.4375 -17.875 16.4375 -19.875 13.4375 C-20.4204104 10.37171943 -20.41308365 7.5045768 -19.875 4.4375 C-14.84010496 -2.09425572 -7.39869884 -3.62195717 0 0 Z " fill="#FF9806" transform="translate(1274.875,746.5625)"/>
<path d="M0 0 C2.31 0 4.62 0 7 0 C10.3 9.24 13.6 18.48 17 28 C20.13555742 21.02716345 20.13555742 21.02716345 22.921875 13.96484375 C23.37626953 12.72250977 23.37626953 12.72250977 23.83984375 11.45507812 C24.14019531 10.62427734 24.44054687 9.79347656 24.75 8.9375 C25.06582031 8.07189453 25.38164062 7.20628906 25.70703125 6.31445312 C26.47416745 4.21064022 27.23844379 2.10583776 28 0 C30.31 0 32.62 0 35 0 C31.62357838 9.75879219 28.23231403 19.51119958 24.625 29.1875 C24.37476074 29.86361328 24.12452148 30.53972656 23.86669922 31.23632812 C22.1217249 35.8782751 22.1217249 35.8782751 21 37 C18.32941149 37.14115161 15.67567762 37.04247107 13 37 C11.14657632 31.89208871 9.29521717 26.78343585 7.44580078 21.67407227 C6.81584011 19.93460677 6.18530723 18.19534839 5.55419922 16.45629883 C4.64922384 13.96228896 3.74628241 11.46755105 2.84375 8.97265625 C2.55939087 8.19036148 2.27503174 7.40806671 1.98205566 6.60206604 C0 1.11387171 0 1.11387171 0 0 Z " fill="#FF9806" transform="translate(396,746)"/>
<path d="M0 0 C2.70552388 2.19823815 4.44778333 3.89556667 6 7 C6.34444547 12.25279338 6.57741751 15.82634624 3 20 C-1.28320293 23.05943066 -4.81138367 23.49395669 -9.87890625 22.69921875 C-13.61323512 21.46819689 -15.04686671 19.29591243 -17 16 C-18.15428527 11.96000155 -18.26673213 9.80019639 -16.9375 5.8125 C-12.46242459 -0.6835772 -7.38787526 -2.39459677 0 0 Z " fill="#FFFFFF" transform="translate(742,256)"/>
<path d="M0 0 C7.26 0 14.52 0 22 0 C22 1.32 22 2.64 22 4 C16.72 4 11.44 4 6 4 C6 7.96 6 11.92 6 16 C10.62 16 15.24 16 20 16 C20 17.65 20 19.3 20 21 C15.38 21 10.76 21 6 21 C6 24.96 6 28.92 6 33 C11.28 33 16.56 33 22 33 C22 34.32 22 35.64 22 37 C14.74 37 7.48 37 0 37 C0 24.79 0 12.58 0 0 Z " fill="#FF9706" transform="translate(461,746)"/>
<path d="M0 0 C7.26 0 14.52 0 22 0 C22 1.32 22 2.64 22 4 C16.72 4 11.44 4 6 4 C6 7.96 6 11.92 6 16 C10.62 16 15.24 16 20 16 C20 17.65 20 19.3 20 21 C15.38 21 10.76 21 6 21 C6 24.96 6 28.92 6 33 C11.28 33 16.56 33 22 33 C22 34.32 22 35.64 22 37 C14.74 37 7.48 37 0 37 C0 24.79 0 12.58 0 0 Z " fill="#FF9706" transform="translate(253,746)"/>
<path d="M0 0 C7.26 0 14.52 0 22 0 C22 1.32 22 2.64 22 4 C16.72 4 11.44 4 6 4 C6 7.96 6 11.92 6 16 C10.62 16 15.24 16 20 16 C20 17.65 20 19.3 20 21 C15.38 21 10.76 21 6 21 C6 24.96 6 28.92 6 33 C11.28 33 16.56 33 22 33 C22 34.32 22 35.64 22 37 C14.74 37 7.48 37 0 37 C0 24.79 0 12.58 0 0 Z " fill="#FF9906" transform="translate(142,746)"/>
<path d="M0 0 C6.93 0 13.86 0 21 0 C21 1.32 21 2.64 21 4 C16.05 4 11.1 4 6 4 C6 7.96 6 11.92 6 16 C10.62 16 15.24 16 20 16 C20 17.65 20 19.3 20 21 C15.38 21 10.76 21 6 21 C6 24.96 6 28.92 6 33 C10.95 33 15.9 33 21 33 C21 34.32 21 35.64 21 37 C14.07 37 7.14 37 0 37 C0 24.79 0 12.58 0 0 Z " fill="#FF9807" transform="translate(1033,746)"/>
<path d="M0 0 C6.93 0 13.86 0 21 0 C21 1.32 21 2.64 21 4 C16.05 4 11.1 4 6 4 C6 7.96 6 11.92 6 16 C10.62 16 15.24 16 20 16 C20 17.65 20 19.3 20 21 C15.38 21 10.76 21 6 21 C6 24.96 6 28.92 6 33 C10.95 33 15.9 33 21 33 C21 34.32 21 35.64 21 37 C14.07 37 7.14 37 0 37 C0 24.79 0 12.58 0 0 Z " fill="#FF9706" transform="translate(346,746)"/>
<path d="M0 0 C0.33 0 0.66 0 1 0 C1.07476563 0.56847656 1.14953125 1.13695312 1.2265625 1.72265625 C2.26488328 7.82024592 4.04213125 12.12603778 9 16 C12.24801168 17.63854918 15.5359175 18.89779193 19 20 C17.01534229 21.00561897 15.03125003 21.98602294 13 22.89453125 C7.68130242 25.33573033 4.30457313 27.64538337 2.09765625 33.3203125 C1.34447376 35.53473844 0.64638276 37.75235086 0 40 C-0.33 40 -0.66 40 -1 40 C-1.17015625 39.33613281 -1.3403125 38.67226563 -1.515625 37.98828125 C-3.30011538 31.48628172 -4.80137477 26.87745394 -10.875 23.3125 C-13.88227937 22.04944266 -16.88478824 20.96423221 -20 20 C-20 19.67 -20 19.34 -20 19 C-18.2365625 18.6596875 -18.2365625 18.6596875 -16.4375 18.3125 C-10.58513346 16.82865529 -6.38045634 14.23729131 -3.1875 9.0625 C-2.02560279 6.06602826 -0.95030876 3.0702283 0 0 Z " fill="#FF9806" transform="translate(563,292)"/>
<path d="M0 0 C2.31 0 4.62 0 7 0 C8.17154293 2.28929053 9.33738074 4.58118362 10.5 6.875 C10.83386719 7.52597656 11.16773438 8.17695312 11.51171875 8.84765625 C14 13.7734375 14 13.7734375 14 16 C14.66 16 15.32 16 16 16 C16.3403125 14.824375 16.3403125 14.824375 16.6875 13.625 C18.40660933 8.87698375 20.68084721 4.47897448 23 0 C25.31 0 27.62 0 30 0 C28.74921068 4.37434518 26.94639636 7.97078396 24.67358398 11.86352539 C19.72902881 20.40980277 17.60266709 26.97131736 18 37 C16.02 37 14.04 37 12 37 C12.05542969 36.23300781 12.11085938 35.46601562 12.16796875 34.67578125 C12.23738197 22.72282562 6.87849172 14.03480125 0.99389648 3.93261719 C0 2 0 2 0 0 Z " fill="#FF9806" transform="translate(569,746)"/>
<path d="M0 0 C1.98 0 3.96 0 6 0 C6 12.21 6 24.42 6 37 C4.02 37 2.04 37 0 37 C0 24.79 0 12.58 0 0 Z " fill="#FFA905" transform="translate(1154,746)"/>
</svg>
